<svg width="32" height="32" viewBox="0 0 32 32" fill="none" xmlns="http://www.w3.org/2000/svg">
<path fill-rule="evenodd" clip-rule="evenodd" d="M17.823 28.4863H14.8727H9.70438C8.97595 28.4863 8.2765 28.1963 7.76091 27.6813C7.24631 27.1653 6.95654 26.4653 6.95654 25.7363V23.4283C6.95654 23.0143 7.29228 22.6783 7.70595 22.6783H14.6569H18.0388H24.9897C25.4034 22.6783 25.7392 23.0143 25.7392 23.4283V25.7363C25.7392 26.4653 25.4494 27.1653 24.9348 27.6813C24.4192 28.1963 23.7197 28.4863 22.9913 28.4863H17.823Z" fill="url(#paint0_linear_203_86)"/>
<path d="M31.3044 21.9698C31.3044 22.535 31.1341 23.0819 30.8217 23.5424C30.5094 24.0029 28.5218 24.7653 28.5218 24.7653H18.4205H4.17986C3.44065 24.7653 2.73085 24.4715 2.20763 23.947C1.68542 23.4224 1.39136 22.7119 1.39136 21.9698V5.9956C1.39136 5.25453 1.68542 4.54294 2.20763 4.01942C2.73085 3.49487 3.44065 3.20007 4.17986 3.20007H28.5159C29.2551 3.20007 29.9649 3.49487 30.4881 4.01942C31.0103 4.54294 31.3044 5.25453 31.3044 5.9956V21.9698Z" fill="#DBEEFF"/>
<path fill-rule="evenodd" clip-rule="evenodd" d="M1.39136 18.5044H13.2174H19.4783H31.3044V21.9552C31.3044 22.7011 31.0114 23.4154 30.4912 23.9427C29.9699 24.4699 29.2627 24.7653 28.5263 24.7653H18.357H14.3388H4.16946C3.43301 24.7653 2.72586 24.4699 2.20458 23.9427C1.68432 23.4154 1.39136 22.7011 1.39136 21.9552V18.5044Z" fill="url(#paint1_linear_203_86)"/>
<path fill-rule="evenodd" clip-rule="evenodd" d="M11.1453 13.3801V9.62006C11.1453 8.31106 10.0843 7.25006 8.77534 7.25006H8.77234C7.46434 7.25006 6.40234 8.31106 6.40234 9.62006V13.3801C6.40234 14.6891 7.46434 15.7501 8.77234 15.7501H8.77534C10.0843 15.7501 11.1453 14.6891 11.1453 13.3801Z" fill="url(#paint2_linear_203_86)"/>
<path fill-rule="evenodd" clip-rule="evenodd" d="M25.4014 13.3801V9.62006C25.4014 8.31106 24.3404 7.25006 23.0314 7.25006H23.0284C21.7194 7.25006 20.6584 8.31106 20.6584 9.62006V13.3801C20.6584 14.6891 21.7194 15.7501 23.0284 15.7501H23.0314C24.3404 15.7501 25.4014 14.6891 25.4014 13.3801Z" fill="url(#paint3_linear_203_86)"/>
<path fill-rule="evenodd" clip-rule="evenodd" d="M18.2742 13.379V10.956C18.2742 9.647 17.2132 8.586 15.9042 8.586H15.9012C14.5922 8.586 13.5312 9.647 13.5312 10.956V13.379C13.5312 14.688 14.5922 15.749 15.9012 15.749H15.9042C17.2132 15.749 18.2742 14.688 18.2742 13.379Z" fill="url(#paint4_linear_203_86)"/>
<defs>
<linearGradient id="paint0_linear_203_86" x1="19.166" y1="26.385" x2="19.166" y2="21.4653" gradientUnits="userSpaceOnUse">
<stop stop-color="#435A64"/>
<stop offset="1" stop-color="#17313C"/>
</linearGradient>
<linearGradient id="paint1_linear_203_86" x1="16.9216" y1="20.9783" x2="16.9216" y2="35.6324" gradientUnits="userSpaceOnUse">
<stop stop-color="#01A1FF"/>
<stop offset="1" stop-color="#00619A"/>
</linearGradient>
<linearGradient id="paint2_linear_203_86" x1="9.49934" y1="12.1688" x2="9.49934" y2="22.5001" gradientUnits="userSpaceOnUse">
<stop stop-color="#FBB545"/>
<stop offset="1" stop-color="#CD7E00"/>
</linearGradient>
<linearGradient id="paint3_linear_203_86" x1="22.7241" y1="11.4529" x2="22.7241" y2="22.9445" gradientUnits="userSpaceOnUse">
<stop stop-color="#FE005B"/>
<stop offset="1" stop-color="#980037"/>
</linearGradient>
<linearGradient id="paint4_linear_203_86" x1="16.2068" y1="12.499" x2="16.2068" y2="25.999" gradientUnits="userSpaceOnUse">
<stop stop-color="#57D768"/>
<stop offset="1" stop-color="#0DB223"/>
</linearGradient>
</defs>
</svg>
