<svg width="32" height="32" viewBox="0 0 32 32" fill="none" xmlns="http://www.w3.org/2000/svg">
<path d="M24.9031 11.45C24.6004 12.6627 23.252 13.2822 22.1337 12.724L21.5598 12.437C21.068 12.1911 20.5264 12.0634 19.9769 12.0634C18.0221 12.0634 16.4375 13.648 16.4375 15.6027V15.615C16.4375 17.169 17.3834 18.5664 18.8262 19.1439C20.0591 19.6374 20.9455 20.7381 21.1634 22.048L21.5108 24.1305C21.6123 24.7412 22.1408 25.1884 22.7594 25.1884C23.1829 25.1884 23.5784 24.9766 23.8129 24.6249C24.6713 23.3369 26.1167 22.5634 27.6646 22.5634H28.3585C29.4033 20.6034 30 18.3712 30 16C30 13.6585 29.4146 11.4526 28.3935 9.51099L26.325 10.0281C25.625 10.2031 25.0781 10.75 24.9031 11.45Z" fill="#1FCC65"/>
<path d="M18.2391 5.48687C19.2121 5.24362 20.2149 5.75637 20.5876 6.68738C21.1993 8.21513 22.9195 8.9755 24.4604 8.39712L27.0451 7.42763C24.4814 4.13238 20.4896 2 16 2C15.7095 2 15.426 2.02625 15.1399 2.04375L15.8504 4.17613C16.182 5.17013 17.2224 5.7415 18.2391 5.48687Z" fill="#1FCC65"/>
<path d="M11.1875 24.1104V24.1034C11.1875 22.594 10.4332 21.1835 9.17675 20.3461C8.776 20.0801 8.30525 19.9375 7.824 19.9375C6.3575 19.9375 5.22263 18.6521 5.40462 17.197C5.71962 14.6744 4.92338 12.15 3.24163 10.2661C2.45063 12.0187 2 13.956 2 16C2 21.7409 5.47725 26.6811 10.4332 28.8389L11.1543 24.512C11.1761 24.379 11.1875 24.2451 11.1875 24.1104Z" fill="#1FCC65"/>
<path d="M27.6646 22.5626C26.1167 22.5626 24.6712 23.3361 23.8128 24.6241C23.5783 24.9767 23.1828 25.1876 22.7593 25.1876C22.1407 25.1876 21.6122 24.7404 21.5107 24.1297L21.1633 22.0472C20.9446 20.7373 20.0591 19.6366 18.8262 19.1431C17.3833 18.5656 16.4375 17.1682 16.4375 15.6142V15.6019C16.4375 13.6472 18.0221 12.0626 19.9768 12.0626C20.5263 12.0626 21.068 12.1903 21.5597 12.4362L22.1337 12.7232C23.252 13.2823 24.5995 12.6619 24.9031 11.4492C25.0781 10.7501 25.625 10.2032 26.325 10.0282L28.3943 9.51107C28.0067 8.77432 27.5526 8.08045 27.0451 7.42857L24.4603 8.39807C22.9195 8.97557 21.1992 8.21607 20.5876 6.68832C20.2148 5.75732 19.2121 5.24457 18.2391 5.48782C17.2223 5.74157 16.1811 5.1702 15.8503 4.1762L15.1398 2.04382C9.8347 2.36845 5.32495 5.6497 3.24158 10.2662C4.92333 12.1509 5.72045 14.6753 5.40458 17.1971C5.22345 18.6522 6.35745 19.9376 7.82395 19.9376C8.3052 19.9376 8.77595 20.0802 9.1767 20.3471C10.4332 21.1845 11.1875 22.5941 11.1875 24.1043V24.1113C11.1875 24.2452 11.1761 24.3799 11.1542 24.5121L10.4332 28.8389C12.1412 29.5827 14.0216 30.0001 16 30.0001C21.3488 30.0001 26.0021 26.9822 28.3585 22.5626H27.6646Z" fill="#009BE0"/>
</svg>
