<svg width="25" height="26" viewBox="0 0 25 26" fill="none" xmlns="http://www.w3.org/2000/svg">
<g clip-path="url(#clip0_203_2)">
<path d="M2.64717 12.6801C2.64717 12.6801 3.63486 14.1891 5.70498 15.4665C5.70498 15.4665 4.20571 2.28866 13.9744 0C11.4716 9.55302 17.158 12.2471 19.2308 7.20007C22.6924 12.0066 20.0641 16.2 20.0641 16.2C21.4835 16.4127 22.6758 14.7999 22.6758 14.7999C22.6864 14.9986 22.6924 15.1986 22.6924 15.4001C22.6924 21.2542 18.1292 26 12.5001 26C6.87109 26 2.30786 21.2542 2.30786 15.4C2.30786 14.4597 2.42622 13.5481 2.64717 12.6801Z" fill="#FF6536"/>
<path d="M22.6757 14.7999C22.6757 14.7999 21.4834 16.4127 20.064 16.2C20.064 16.2 22.6923 12.0066 19.2307 7.20007C17.1579 12.2471 11.4715 9.55302 13.9743 0C13.4511 0.122586 12.9605 0.276605 12.5 0.457945V26C18.1291 26 22.6923 21.2542 22.6923 15.4C22.6923 15.1986 22.6863 14.9986 22.6757 14.7999Z" fill="#FF421D"/>
<path d="M8.03003 21.3517C8.03003 23.9191 10.0313 26.0004 12.5 26.0004C14.9686 26.0004 16.9699 23.9191 16.9699 21.3517C16.9699 19.9775 16.3966 18.7426 15.4851 17.8916C13.7569 20.3334 11.2941 16.6294 13.2134 13.9244C13.2134 13.9244 8.03003 14.6 8.03003 21.3517Z" fill="#FBBF00"/>
<path d="M16.9699 21.3517C16.9699 19.9775 16.3966 18.7426 15.4852 17.8916C13.7569 20.3334 11.2941 16.6294 13.2135 13.9244C13.2135 13.9244 12.9318 13.9613 12.5 14.103V26.0004C14.9687 26.0004 16.9699 23.9191 16.9699 21.3517Z" fill="#FFA900"/>
</g>
<defs>
<clipPath id="clip0_203_2">
<rect width="25" height="26" fill="white"/>
</clipPath>
</defs>
</svg>
