<svg width="32" height="32" viewBox="0 0 32 32" fill="none" xmlns="http://www.w3.org/2000/svg">
<g clip-path="url(#clip0_203_80)">
<path d="M15 10H12.783L9.92899 5.243C9.83799 5.092 9.67599 5 9.49999 5H3.49999C3.31099 5 3.13799 5.107 3.05299 5.276C2.96799 5.446 2.98599 5.648 3.09999 5.8L5.87499 9.5L3.09999 13.2C2.98599 13.351 2.96799 13.554 3.05299 13.723C3.13799 13.893 3.31099 14 3.49999 14H15C16.103 14 17 13.103 17 12C17 10.897 16.103 10 15 10Z" fill="#057ED1"/>
<path d="M22.5 20.667C22.224 20.667 22 20.443 22 20.167V2.5C22 2.224 22.224 2 22.5 2C22.776 2 23 2.224 23 2.5V20.167C23 20.443 22.776 20.667 22.5 20.667Z" fill="#FFB000"/>
<path d="M22.5 2H11C9.897 2 9 2.897 9 4V9C9 10.103 9.897 11 11 11H22.5C22.776 11 23 10.776 23 10.5V2.5C23 2.224 22.776 2 22.5 2Z" fill="#009BE0"/>
<path d="M30.9999 26.5C30.9999 26.5 28.365 22.695 25.844 20.93C23.323 19.165 19.884 19.571 17.843 21.875L17.75 21.98C16.203 23.728 13.679 24.188 11.613 23.1C9.12196 21.788 6.09096 22.351 4.23796 24.47L0.124964 29.171C-0.00403647 29.318 -0.0350365 29.528 0.0459635 29.707C0.125964 29.885 0.303964 30 0.499964 30H31.5C31.776 30 32 29.776 32 29.5L31.9999 29C31.9999 28.5 31.9999 28 30.9999 26.5Z" fill="#09AD4F"/>
</g>
<defs>
<clipPath id="clip0_203_80">
<rect width="32" height="32" fill="white"/>
</clipPath>
</defs>
</svg>
