<svg width="25" height="23" viewBox="0 0 25 23" fill="none" xmlns="http://www.w3.org/2000/svg">
<path d="M0 3.0019C0 2.73653 0.105467 2.48204 0.293198 2.2944C0.480929 2.10676 0.735548 2.00134 1.00104 2.00134H23.0239C23.2894 2.00134 23.544 2.10676 23.7318 2.2944C23.9195 2.48204 24.025 2.73653 24.025 3.0019V21.0119C24.025 21.2772 23.9195 21.5317 23.7318 21.7194C23.544 21.907 23.2894 22.0124 23.0239 22.0124H1.00104C0.735548 22.0124 0.480929 21.907 0.293198 21.7194C0.105467 21.5317 0 21.2772 0 21.0119V3.0019Z" fill="#206EF8"/>
<path d="M0 8.70521C0 8.51946 0.105467 8.34131 0.293198 8.20996C0.480929 8.07861 0.735548 8.00482 1.00104 8.00482H23.0239C23.2894 8.00482 23.544 8.07861 23.7318 8.20996C23.9195 8.34131 24.025 8.51946 24.025 8.70521V21.3122C24.025 21.498 23.9195 21.6761 23.7318 21.8075C23.544 21.9388 23.2894 22.0126 23.0239 22.0126H1.00104C0.735548 22.0126 0.480929 21.9388 0.293198 21.8075C0.105467 21.6761 0 21.498 0 21.3122V8.70521Z" fill="#87B2FF"/>
<path d="M5.00513 4.0029V1" stroke="#87B2FF" stroke-width="2" stroke-linecap="round" stroke-linejoin="round"/>
<path d="M19.0198 4.0029V1" stroke="#87B2FF" stroke-width="2" stroke-linecap="round" stroke-linejoin="round"/>
<path d="M5.50568 12.0061H3.50366V14.0089H5.50568V12.0061Z" fill="#206EF8"/>
<path d="M5.50568 17.0089H3.50366V19.0116H5.50568V17.0089Z" fill="#206EF8"/>
<path d="M10.5109 12.0061H8.50879V14.0089H10.5109V12.0061Z" fill="#206EF8"/>
<path d="M10.5109 17.0089H8.50879V19.0116H10.5109V17.0089Z" fill="#206EF8"/>
<path d="M15.5162 12.0061H13.5142V14.0089H15.5162V12.0061Z" fill="#206EF8"/>
<path d="M15.5162 17.0089H13.5142V19.0116H15.5162V17.0089Z" fill="#206EF8"/>
<path d="M20.5213 12.0061H18.5193V14.0089H20.5213V12.0061Z" fill="#206EF8"/>
<path d="M20.5213 17.0089H18.5193V19.0116H20.5213V17.0089Z" fill="#206EF8"/>
</svg>
