<svg width="32" height="32" viewBox="0 0 32 32" fill="none" xmlns="http://www.w3.org/2000/svg">
<path d="M19.9744 21.9569C19.9268 21.8327 19.8175 21.7338 19.6769 21.6857L17.7125 21.0295C17.5799 20.9849 17.4321 20.991 17.3046 21.047C17.1771 21.1021 17.082 21.2001 17.0435 21.3182L14.5133 27.4427C14.4444 27.6518 14.5639 27.8731 14.7936 27.9624C14.8604 27.9878 14.9302 28 15.0001 28C15.1691 28 15.333 27.9265 15.4282 27.7961L19.9218 22.3279C20.0027 22.2176 20.022 22.0803 19.9744 21.9569Z" fill="#444449"/>
<path d="M29.7175 4.02646C29.5373 3.96215 29.3299 4.01715 29.2127 4.16862L16.0877 21.0922C16.0055 21.1979 15.9792 21.335 16.0168 21.4628C16.0545 21.5897 16.1516 21.693 16.2793 21.7412L27.6543 25.9721C27.7068 25.9907 27.7593 26 27.8127 26C27.894 26 27.9754 25.978 28.0463 25.9348C28.1627 25.8638 28.2379 25.7436 28.2484 25.6108L29.9984 4.45632C30.015 4.26847 29.8995 4.09331 29.7175 4.02646Z" fill="#E4E5ED"/>
<path d="M29.9254 4.18567C29.8012 4.00714 29.5579 3.94987 29.361 4.04672L2.23686 17.5208C2.07237 17.6033 1.97874 17.7768 2.00412 17.9536C2.02949 18.1313 2.16949 18.2728 2.35148 18.3082L11.1012 19.9924C11.131 19.9975 11.159 20 11.1878 20C11.2911 20 11.3926 19.9646 11.4722 19.8989L29.8467 4.74063C30.0155 4.60168 30.0496 4.36336 29.9254 4.18567Z" fill="#E4E5ED"/>
<path d="M29.8635 4.1155C29.7038 3.96635 29.455 3.96121 29.2875 4.10264L11.1513 19.5314C11.0062 19.6556 10.9595 19.8579 11.0373 20.0311L14.4918 27.7454C14.5617 27.9014 14.7163 28 14.8865 28C14.8968 28 14.9063 28 14.9167 27.9991C15.0972 27.9863 15.2518 27.8629 15.3019 27.6897L17.0075 21.7659L29.9136 4.6855C30.0457 4.51064 30.0242 4.2655 29.8635 4.1155Z" fill="#C3CCDB"/>
</svg>
