<svg width="40" height="40" viewBox="0 0 40 40" fill="none" xmlns="http://www.w3.org/2000/svg">
<g clip-path="url(#clip0_203_34)">
<path d="M23.62 29.0513C23.5025 28.9275 23.3387 28.8575 23.17 28.8575L16.8562 28.835C16.855 28.835 16.855 28.835 16.855 28.835C16.685 28.835 16.5225 28.9038 16.405 29.025C15.4987 29.9625 15 31.1975 15 32.5C15 35.8738 19.405 39.6888 19.5938 39.8488C19.71 39.95 19.855 40 20 40C20.145 40 20.29 39.95 20.4063 39.8488C20.595 39.6888 25 35.8738 25 32.5C25 31.21 24.51 29.985 23.62 29.0513Z" fill="#ED412F"/>
<path d="M21.8238 29.0388C21.705 28.9163 21.5425 28.8463 21.3738 28.845L18.6413 28.835C18.64 28.835 18.64 28.835 18.6388 28.835C18.47 28.835 18.3075 28.9038 18.19 29.025C17.7338 29.4963 17.4825 30.1175 17.4825 30.7738C17.4825 32.3675 19.3775 34.0375 19.5938 34.2225C19.71 34.325 19.855 34.375 20 34.375C20.145 34.375 20.29 34.325 20.4063 34.225C20.6225 34.04 22.5175 32.37 22.5175 30.775C22.5188 30.1263 22.2713 29.5088 21.8238 29.0388Z" fill="#FFB000"/>
<path d="M14.3513 20.1937C14.1875 20.1137 13.9975 20.1087 13.8288 20.1799L6.89375 23.1512C5.74375 23.6449 5 24.7724 5 26.0237V34.3749C5 34.6112 5.13375 34.8274 5.345 34.9337C5.43375 34.9774 5.53 34.9999 5.625 34.9999C5.7575 34.9999 5.89 34.9574 6 34.8749L16 27.3749C16.2025 27.2237 16.2925 26.9662 16.2313 26.7224L14.6813 20.6012C14.635 20.4224 14.515 20.2749 14.3513 20.1937Z" fill="#444449"/>
<path d="M33.1062 23.1513L26.1712 20.18C26.0024 20.1088 25.8137 20.1125 25.6474 20.1938C25.4837 20.275 25.3624 20.4238 25.3187 20.6013L23.7687 26.7225C23.7062 26.9663 23.7974 27.2238 23.9999 27.375L33.9999 34.875C34.1099 34.9575 34.2412 35 34.3749 35C34.4699 35 34.5662 34.9775 34.6549 34.9338C34.8662 34.8275 34.9999 34.6113 34.9999 34.375V26.0238C34.9999 24.7725 34.2562 23.645 33.1062 23.1513Z" fill="#444449"/>
<path d="M26.68 17.5601C26.4412 17.4364 26.155 17.4751 25.9625 17.6564C24.34 19.1676 22.2225 20.0001 20 20.0001C17.7725 20.0001 15.655 19.1639 14.0412 17.6451C13.8462 17.4626 13.5575 17.4226 13.3225 17.5464C13.0875 17.6701 12.955 17.9289 12.9937 18.1926C13.73 23.1276 14.9787 26.9139 15.0312 27.0726C15.1162 27.3276 15.3562 27.5001 15.625 27.5001H24.375C24.645 27.5001 24.8825 27.3276 24.9687 27.0726C25.0212 26.9139 26.2687 23.1276 27.0062 18.2064C27.0462 17.9426 26.9137 17.6839 26.68 17.5601Z" fill="#009BE0"/>
<path d="M20.1712 0.0237427C20.0587 -0.00750732 19.94 -0.00750732 19.8287 0.0237427C15.5137 1.25624 12.5 6.12999 12.5 11.875C12.5 13.8412 12.6662 15.9662 12.995 18.1912C13.0162 18.3312 13.0825 18.4587 13.185 18.5562C15.0312 20.2925 17.4525 21.25 20 21.25C22.54 21.25 24.96 20.2987 26.8137 18.57C26.9175 18.4725 26.9862 18.3437 27.0062 18.2037C27.3337 15.9625 27.5 13.8325 27.5 11.875C27.5 6.12999 24.4862 1.25624 20.1712 0.0237427Z" fill="#E4E5ED"/>
<path d="M20 15C22.0711 15 23.75 13.3211 23.75 11.25C23.75 9.17893 22.0711 7.5 20 7.5C17.9289 7.5 16.25 9.17893 16.25 11.25C16.25 13.3211 17.9289 15 20 15Z" fill="#009BE0"/>
<path d="M24.375 26.25H15.625C15.28 26.25 15 26.53 15 26.875V29.375C15 29.72 15.28 30 15.625 30H24.375C24.72 30 25 29.72 25 29.375V26.875C25 26.53 24.72 26.25 24.375 26.25Z" fill="#057ED1"/>
<path d="M15.625 40C15.28 40 15 39.72 15 39.375V38.125C15 37.78 15.28 37.5 15.625 37.5C15.97 37.5 16.25 37.78 16.25 38.125V39.375C16.25 39.72 15.97 40 15.625 40Z" fill="#FFB000"/>
<path d="M24.375 40C24.03 40 23.75 39.72 23.75 39.375V38.125C23.75 37.78 24.03 37.5 24.375 37.5C24.72 37.5 25 37.78 25 38.125V39.375C25 39.72 24.72 40 24.375 40Z" fill="#FFB000"/>
<path d="M26.875 36.2501C26.53 36.2501 26.25 35.9701 26.25 35.6251V34.3751C26.25 34.0301 26.53 33.7501 26.875 33.7501C27.22 33.7501 27.5 34.0301 27.5 34.3751V35.6251C27.5 35.9701 27.22 36.2501 26.875 36.2501Z" fill="#FFB000"/>
<path d="M13.125 36.2501C12.78 36.2501 12.5 35.9701 12.5 35.6251V34.3751C12.5 34.0301 12.78 33.7501 13.125 33.7501C13.47 33.7501 13.75 34.0301 13.75 34.3751V35.6251C13.75 35.9701 13.47 36.2501 13.125 36.2501Z" fill="#FFB000"/>
</g>
<defs>
<clipPath id="clip0_203_34">
<rect width="40" height="40" fill="white"/>
</clipPath>
</defs>
</svg>
