<svg width="53" height="37" viewBox="0 0 53 37" fill="none" xmlns="http://www.w3.org/2000/svg">
<path d="M7.5 22.0002V22.0002C8.78575 25.4749 11.5253 28.2145 15 29.5002V29.5002V29.5002C11.5253 30.786 8.78575 33.5256 7.5 37.0002V37.0002V37.0002C6.21425 33.5256 3.47468 30.786 0 29.5002V29.5002V29.5002C3.47468 28.2145 6.21425 25.4749 7.5 22.0002V22.0002Z" fill="white"/>
<path d="M36.5 0.000244141L37.765 3.41892C39.7907 8.8933 44.1069 13.2095 49.5813 15.2352L53 16.5002L49.5813 17.7653C44.1069 19.791 39.7907 24.1072 37.765 29.5816L36.5 33.0002L35.235 29.5816C33.2093 24.1072 28.8931 19.791 23.4187 17.7653L20 16.5002L23.4187 15.2352C28.8931 13.2095 33.2093 8.8933 35.235 3.41892L36.5 0.000244141Z" fill="white"/>
</svg>
