<svg width="40" height="40" viewBox="0 0 40 40" fill="none" xmlns="http://www.w3.org/2000/svg">
<g clip-path="url(#clip0_203_52)">
<path d="M37.0713 6.80114C37.2425 6.63489 37.3038 6.38614 37.23 6.16114C37.1563 5.93489 36.96 5.76989 36.7263 5.73614L31.6013 4.99114L29.31 0.34864C29.1 -0.0788599 28.3988 -0.0788599 28.19 0.34864L25.8988 4.99114L20.7738 5.73614C20.5388 5.76989 20.3425 5.93489 20.27 6.16114C20.1963 6.38739 20.2575 6.63489 20.4288 6.80114L24.1363 10.4149L23.26 15.5186C23.22 15.7536 23.3163 15.9899 23.5088 16.1299C23.7013 16.2711 23.9563 16.2874 24.1663 16.1774L28.75 13.7686L33.3338 16.1774C33.425 16.2261 33.5238 16.2499 33.6238 16.2499C33.7538 16.2499 33.8825 16.2099 33.9913 16.1299C34.1838 15.9899 34.28 15.7536 34.24 15.5186L33.3638 10.4149L37.0713 6.80114Z" fill="#FFB000"/>
<path d="M33.1574 3.93249C33.3499 3.93249 33.5412 3.84374 33.6624 3.67499L34.3975 2.66374C34.6 2.38374 34.5387 1.99374 34.26 1.79124C33.9812 1.58874 33.5912 1.64999 33.3874 1.92874L32.6524 2.93999C32.4499 3.21999 32.5112 3.60999 32.7899 3.81249C32.9012 3.89374 33.0299 3.93249 33.1574 3.93249Z" fill="#ED412F"/>
<path d="M21.425 11.0974L20.2362 11.4837C19.9075 11.5899 19.7287 11.9437 19.835 12.2712C19.92 12.5349 20.1662 12.7037 20.43 12.7037C20.4937 12.7037 20.56 12.6937 20.6225 12.6737L21.8112 12.2874C22.14 12.1812 22.3187 11.8274 22.2125 11.4999C22.1075 11.1724 21.7512 10.9924 21.425 11.0974Z" fill="#ED412F"/>
<path d="M37.265 11.4849L36.075 11.0974C35.75 10.9924 35.3937 11.1724 35.2875 11.4999C35.1812 11.8274 35.3612 12.1799 35.6887 12.2874L36.8775 12.6737C36.9412 12.6949 37.0075 12.7037 37.07 12.7037C37.3337 12.7037 37.5787 12.5362 37.665 12.2712C37.7725 11.9437 37.5925 11.5912 37.265 11.4849Z" fill="#ED412F"/>
<path d="M23.8363 3.67486C23.9588 3.84361 24.1488 3.93236 24.3413 3.93236C24.47 3.93236 24.5975 3.89361 24.7088 3.81236C24.9888 3.60986 25.0488 3.21861 24.8463 2.93986L24.1125 1.92861C23.9088 1.64861 23.5163 1.58861 23.24 1.79111C22.96 1.99361 22.9 2.38486 23.1025 2.66361L23.8363 3.67486Z" fill="#ED412F"/>
<path d="M28.75 16.2499C28.405 16.2499 28.125 16.5299 28.125 16.8749V18.1249C28.125 18.4699 28.405 18.7499 28.75 18.7499C29.095 18.7499 29.375 18.4699 29.375 18.1249V16.8749C29.375 16.5299 29.095 16.2499 28.75 16.2499Z" fill="#ED412F"/>
<path d="M39.8175 22.6825C38.1388 21.0037 35.56 20.71 33.5463 21.9688L28.2363 25.2875C27.2288 25.9175 26.0675 26.25 24.8788 26.25H18.2288C17.8275 26.25 17.5 25.9225 17.5 25.5212C17.5 25.1637 17.7563 24.8612 18.1088 24.8025L20.7788 24.3575C23.225 23.95 25 21.855 25 19.375C25 19.03 24.72 18.75 24.375 18.75H19.175C15.1388 18.75 11.3788 20.5575 8.85753 23.7087C8.08878 24.67 7.17878 25.505 6.15253 26.1887L4.02878 27.605C3.87253 27.7087 3.77128 27.8775 3.75378 28.0637C3.73628 28.25 3.80128 28.435 3.93378 28.5675L11.4338 36.0675C11.555 36.1887 11.715 36.25 11.875 36.25C12.035 36.25 12.195 36.1887 12.3175 36.0675L13.0888 35.2962C14.07 34.3137 15.43 33.75 16.82 33.75H25.1413C27.2188 33.75 29.2188 32.99 30.7713 31.6087L39.79 23.5912C39.9188 23.4775 39.995 23.315 40 23.1425C40.005 22.9712 39.9388 22.805 39.8175 22.6825Z" fill="#FFBE7D"/>
<path d="M12.6826 35.5488L4.45007 27.3163C3.71882 26.585 2.53007 26.585 1.79882 27.3163L0.182568 28.9325C-0.0611816 29.1763 -0.0611816 29.5725 0.182568 29.8163L10.1826 39.8163C10.3051 39.9388 10.4651 40 10.6251 40C10.7851 40 10.9451 39.9388 11.0676 39.8175L12.6838 38.2013C13.4138 37.47 13.4138 36.28 12.6826 35.5488Z" fill="#009BE0"/>
</g>
<defs>
<clipPath id="clip0_203_52">
<rect width="40" height="40" fill="white"/>
</clipPath>
</defs>
</svg>
