<svg width="40" height="40" viewBox="0 0 40 40" fill="none" xmlns="http://www.w3.org/2000/svg">
<g clip-path="url(#clip0_203_63)">
<path d="M20.625 21.2501H4.375C2.6525 21.2501 1.25 22.6513 1.25 24.3751V35.6251C1.25 35.9701 1.53 36.2501 1.875 36.2501H23.125C23.47 36.2501 23.75 35.9701 23.75 35.6251V24.3751C23.75 22.6513 22.3487 21.2501 20.625 21.2501Z" fill="#E4E5ED"/>
<path d="M35.625 0H19.375C17.6525 0 16.25 1.40125 16.25 3.125V14.375C16.25 14.72 16.53 15 16.875 15H38.125C38.47 15 38.75 14.72 38.75 14.375V3.125C38.75 1.40125 37.3488 0 35.625 0Z" fill="#E4E5ED"/>
<path d="M12.5 30C13.8807 30 15 28.8807 15 27.5C15 26.1193 13.8807 25 12.5 25C11.1193 25 10 26.1193 10 27.5C10 28.8807 11.1193 30 12.5 30Z" fill="#009BE0"/>
<path d="M27.5001 8.75006C28.8808 8.75006 30.0001 7.63077 30.0001 6.25006C30.0001 4.86935 28.8808 3.75006 27.5001 3.75006C26.1194 3.75006 25.0001 4.86935 25.0001 6.25006C25.0001 7.63077 26.1194 8.75006 27.5001 8.75006Z" fill="#009BE0"/>
<path d="M16.7876 33.3862C16.3614 32.1087 15.1701 31.25 13.8239 31.25H11.1764C9.82886 31.25 8.63761 32.1087 8.21136 33.3862L7.53136 35.4275C7.46761 35.6175 7.50011 35.8275 7.61761 35.99C7.73511 36.1537 7.92386 36.25 8.12511 36.25H16.8751C17.0764 36.25 17.2651 36.1537 17.3826 35.99C17.5001 35.8275 17.5326 35.6175 17.4689 35.4275L16.7876 33.3862Z" fill="#009BE0"/>
<path d="M32.3813 14.7401C32.5001 14.5776 32.5313 14.3676 32.4676 14.1776L31.7876 12.1363C31.3613 10.8588 30.1701 10.0001 28.8238 10.0001H26.1776C24.8313 10.0001 23.6401 10.8588 23.2126 12.1363L22.5326 14.1776C22.4688 14.3676 22.5013 14.5776 22.6188 14.7401C22.7351 14.9038 22.9238 15.0001 23.1251 15.0001H31.8751C32.0763 15.0001 32.2651 14.9038 32.3813 14.7401Z" fill="#009BE0"/>
<path d="M23.1251 35.0001H1.87512C0.841372 35.0001 0.00012207 35.8413 0.00012207 36.8751C0.00012207 38.5988 1.40262 40.0001 3.12512 40.0001H21.8751C23.5989 40.0001 25.0001 38.5988 25.0001 36.8751C25.0001 35.8413 24.1589 35.0001 23.1251 35.0001Z" fill="#444449"/>
<path d="M38.125 13.75H16.875C15.8412 13.75 15 14.5912 15 15.625C15 17.3487 16.4025 18.75 18.125 18.75H36.875C38.5987 18.75 40 17.3487 40 15.625C40 14.5912 39.1588 13.75 38.125 13.75Z" fill="#444449"/>
<path d="M9.81754 15.1825C9.57379 14.9387 9.17754 14.9387 8.93379 15.1825L7.50004 16.6162V13.125C7.50004 10.0237 10.0238 7.5 13.125 7.5C13.47 7.5 13.75 7.22 13.75 6.875C13.75 6.53 13.47 6.25 13.125 6.25C9.33379 6.25 6.25004 9.335 6.25004 13.125V16.6162L4.81754 15.1837C4.57379 14.94 4.17754 14.94 3.93379 15.1837C3.69004 15.4275 3.69004 15.8237 3.93379 16.0675L6.43254 18.5662L6.43379 18.5675C6.49379 18.6275 6.56379 18.6725 6.63754 18.7025C6.71004 18.7325 6.79004 18.75 6.87504 18.75C6.96004 18.75 7.04004 18.7325 7.11379 18.7025C7.18754 18.6725 7.25754 18.6275 7.31754 18.5675L7.31879 18.5662L9.81754 16.0675C10.0613 15.8225 10.0613 15.4275 9.81754 15.1825Z" fill="#FFB000"/>
<path d="M36.0675 23.9326L33.5687 21.4338L33.5675 21.4326C33.5075 21.3726 33.4375 21.3276 33.3637 21.2976C33.29 21.2676 33.21 21.2501 33.125 21.2501C33.04 21.2501 32.96 21.2676 32.8863 21.2976C32.8125 21.3276 32.7425 21.3726 32.6825 21.4326L32.6813 21.4338L30.1825 23.9326C29.9387 24.1763 29.9387 24.5726 30.1825 24.8163C30.4262 25.0601 30.8225 25.0601 31.0663 24.8163L32.5 23.3838V26.8751C32.5 29.9763 29.9762 32.5001 26.875 32.5001C26.53 32.5001 26.25 32.7801 26.25 33.1251C26.25 33.4701 26.53 33.7501 26.875 33.7501C30.665 33.7501 33.75 30.6651 33.75 26.8751V23.3838L35.1825 24.8163C35.305 24.9388 35.465 25.0001 35.625 25.0001C35.785 25.0001 35.945 24.9388 36.0675 24.8176C36.3112 24.5726 36.3112 24.1776 36.0675 23.9326Z" fill="#FFB000"/>
</g>
<defs>
<clipPath id="clip0_203_63">
<rect width="40" height="40" fill="white"/>
</clipPath>
</defs>
</svg>
