<svg width="76" height="10" viewBox="0 0 76 10" fill="none" xmlns="http://www.w3.org/2000/svg">
<path d="M0.176758 7.46656H0.793765V6.78342C0.974505 7.03677 1.20355 7.23734 1.48089 7.38512C1.75823 7.52989 2.08076 7.60228 2.44847 7.60228C2.92213 7.60228 3.32568 7.48918 3.65911 7.26297C3.99254 7.03375 4.24652 6.72461 4.42102 6.33554C4.59865 5.94647 4.68746 5.50763 4.68746 5.01903C4.68746 4.53345 4.59865 4.09612 4.42102 3.70705C4.24652 3.31798 3.9941 3.01034 3.66379 2.78414C3.33347 2.55793 2.93771 2.44483 2.47651 2.44483C2.1275 2.44483 1.81744 2.50817 1.54633 2.63484C1.27833 2.7585 1.05241 2.93192 0.868554 3.15511V0.951884H0.176758V7.46656ZM2.37835 6.98248C2.01999 6.98248 1.72395 6.89803 1.49024 6.72913C1.25652 6.55722 1.08201 6.32347 0.966715 6.0279C0.851415 5.73233 0.793765 5.39604 0.793765 5.01903C0.793765 4.44296 0.923088 3.97397 1.18173 3.61204C1.44349 3.2471 1.83769 3.06463 2.36433 3.06463C2.72581 3.06463 3.02341 3.15059 3.25712 3.3225C3.49395 3.49442 3.67002 3.72816 3.78532 4.02373C3.90062 4.31931 3.95827 4.65107 3.95827 5.01903C3.95827 5.39 3.89906 5.72328 3.78064 6.01885C3.66534 6.31442 3.49084 6.54968 3.25712 6.72461C3.02341 6.89652 2.73048 6.98248 2.37835 6.98248Z" fill="#2A2E34"/>
<path d="M6.93514 9.63811H7.62226L10.3334 2.58055H9.63221L8.10371 6.59793L6.44434 2.58055H5.71515L7.76716 7.45298L6.93514 9.63811Z" fill="#2A2E34"/>
<path d="M15.8774 7.46656H16.5879L18.4203 2.58055H17.7144L16.2327 6.59793L14.7416 2.58055H14.0451L15.8774 7.46656Z" fill="#2A2E34"/>
<path d="M21.9613 7.60228C22.4506 7.60228 22.8884 7.48616 23.2748 7.25392C23.6643 7.02169 23.9588 6.69143 24.1583 6.26315L23.5179 6.02337C23.1969 6.65071 22.6687 6.96438 21.9333 6.96438C21.4285 6.96438 21.0327 6.81207 20.746 6.50745C20.4624 6.20283 20.3066 5.77003 20.2786 5.20904H24.2564C24.2813 4.34645 24.0866 3.67085 23.6721 3.18225C23.2608 2.69064 22.6812 2.44483 21.9333 2.44483C21.4472 2.44483 21.0249 2.55039 20.6666 2.76152C20.3113 2.97264 20.0355 3.27274 19.8392 3.66181C19.6429 4.05088 19.5447 4.51233 19.5447 5.04617C19.5447 5.56192 19.6429 6.01131 19.8392 6.39435C20.0386 6.77739 20.3191 7.07447 20.6806 7.28559C21.0452 7.49672 21.4721 7.60228 21.9613 7.60228ZM21.952 3.05558C22.9024 3.05558 23.4306 3.58791 23.5366 4.65258H20.2926C20.3456 4.13683 20.5139 3.74173 20.7974 3.46727C21.081 3.19281 21.4659 3.05558 21.952 3.05558Z" fill="#2A2E34"/>
<path d="M26.0416 7.46656H26.7288V5.02808C26.7288 4.73552 26.763 4.44447 26.8316 4.15493C26.9033 3.86237 27.0653 3.61958 27.3177 3.42655C27.5016 3.28178 27.701 3.19884 27.916 3.17773C28.1342 3.1536 28.3367 3.16265 28.5237 3.20487V2.58055C28.3024 2.52626 28.0516 2.52476 27.7711 2.57603C27.4907 2.62428 27.2507 2.73286 27.0513 2.90176C26.9017 3.01034 26.7708 3.16114 26.6586 3.35417V2.58055H26.0416V7.46656Z" fill="#2A2E34"/>
<path d="M30.1536 7.46656H30.8454V4.86069C30.8454 4.30875 30.9732 3.87595 31.2287 3.56228C31.4842 3.24861 31.8551 3.09177 32.3412 3.09177C32.6933 3.09177 32.9769 3.17471 33.1919 3.3406C33.4069 3.50346 33.5628 3.72665 33.6594 4.01016C33.756 4.29367 33.8043 4.61488 33.8043 4.97379V7.46656H34.4961V4.77925C34.4961 4.50479 34.4602 4.23033 34.3885 3.95587C34.32 3.68141 34.2078 3.43108 34.052 3.20487C33.8962 2.97867 33.689 2.79771 33.4303 2.66199C33.1717 2.52626 32.8523 2.4584 32.4721 2.4584C32.1106 2.4584 31.7834 2.52626 31.4905 2.66199C31.2007 2.79469 30.9623 2.99375 30.7753 3.25916V2.58055H30.1536V7.46656Z" fill="#2A2E34"/>
<path d="M38.5285 7.60228C39.0271 7.60228 39.454 7.4937 39.8093 7.27654C40.1676 7.05939 40.4419 6.75778 40.6319 6.37173C40.8252 5.98266 40.9218 5.53176 40.9218 5.01903C40.9218 4.51535 40.8267 4.07048 40.6366 3.68443C40.4496 3.29536 40.177 2.99224 39.8186 2.77509C39.4634 2.55492 39.0333 2.44483 38.5285 2.44483C38.0362 2.44483 37.6108 2.55341 37.2524 2.77056C36.8972 2.9847 36.623 3.2848 36.4298 3.67085C36.2365 4.05691 36.1399 4.5063 36.1399 5.01903C36.1399 5.52271 36.2334 5.96909 36.4204 6.35816C36.6105 6.74723 36.8832 7.05185 37.2384 7.27202C37.5968 7.49219 38.0268 7.60228 38.5285 7.60228ZM38.5285 6.96438C37.9832 6.96438 37.5703 6.78794 37.2898 6.43507C37.0094 6.07917 36.8691 5.60716 36.8691 5.01903C36.8691 4.449 37.0047 3.98452 37.2758 3.62561C37.5469 3.26369 37.9645 3.08272 38.5285 3.08272C39.0863 3.08272 39.5023 3.25916 39.7766 3.61204C40.0539 3.9619 40.1926 4.4309 40.1926 5.01903C40.1926 5.5951 40.0554 6.06409 39.7812 6.42602C39.507 6.78493 39.0894 6.96438 38.5285 6.96438Z" fill="#2A2E34"/>
<path d="M42.6491 7.46656H43.4484V6.69294H42.6491V7.46656Z" fill="#2A2E34"/>
<path d="M47.5983 7.60228C47.966 7.60228 48.2885 7.52989 48.5658 7.38512C48.8432 7.23734 49.0722 7.03677 49.253 6.78342V7.46656H49.87V0.951884H49.1782V3.15511C48.9943 2.93192 48.7668 2.7585 48.4957 2.63484C48.2277 2.50817 47.9192 2.44483 47.5702 2.44483C47.109 2.44483 46.7133 2.55793 46.3829 2.78414C46.0526 3.01034 45.7987 3.31798 45.621 3.70705C45.4465 4.09612 45.3593 4.53345 45.3593 5.01903C45.3593 5.50763 45.4465 5.94647 45.621 6.33554C45.7987 6.72461 46.0542 7.03375 46.3876 7.26297C46.7242 7.48918 47.1277 7.60228 47.5983 7.60228ZM47.6684 6.98248C47.3194 6.98248 47.0264 6.89652 46.7896 6.72461C46.5559 6.54968 46.3798 6.31442 46.2614 6.01885C46.1461 5.72328 46.0885 5.39 46.0885 5.01903C46.0885 4.65107 46.1461 4.31931 46.2614 4.02373C46.3767 3.72816 46.5512 3.49442 46.7849 3.3225C47.0218 3.15059 47.3209 3.06463 47.6824 3.06463C48.209 3.06463 48.6017 3.2471 48.8603 3.61204C49.1221 3.97397 49.253 4.44296 49.253 5.01903C49.253 5.39604 49.1953 5.73233 49.08 6.0279C48.9647 6.32347 48.7902 6.55722 48.5565 6.72913C48.3228 6.89803 48.0267 6.98248 47.6684 6.98248Z" fill="#2A2E34"/>
<path d="M52.0227 1.65312H52.7098V0.906644H52.0227V1.65312ZM52.0227 7.46656H52.7098V2.58055H52.0227V7.46656Z" fill="#2A2E34"/>
<path d="M56.8176 7.60228C57.1573 7.60228 57.4595 7.53894 57.7244 7.41227C57.9893 7.28559 58.2121 7.11066 58.3928 6.88747V7.38965C58.3959 7.9627 58.2791 8.3955 58.0423 8.68806C57.8054 8.98061 57.4128 9.12689 56.8643 9.12689C56.5995 9.12689 56.3392 9.06657 56.0837 8.94593C55.8282 8.8283 55.6319 8.63377 55.4948 8.36232L54.8731 8.6971C55.0881 9.07713 55.3763 9.35159 55.7378 9.52049C56.1024 9.68939 56.4779 9.77384 56.8643 9.77384C57.4813 9.77384 57.9737 9.64414 58.3414 9.38476C58.7091 9.12538 58.9382 8.72274 59.0285 8.17684C59.0503 8.05318 59.0644 7.9265 59.0706 7.79681C59.08 7.67014 59.0846 7.53743 59.0846 7.39869V2.58055H58.4723V3.25464C58.2884 3.00129 58.0547 2.80374 57.7711 2.66199C57.4907 2.51722 57.1635 2.44483 56.7895 2.44483C56.3283 2.44483 55.9326 2.55793 55.6023 2.78414C55.272 3.01034 55.018 3.31798 54.8404 3.70705C54.6659 4.09612 54.5786 4.53345 54.5786 5.01903C54.5786 5.50763 54.6659 5.94647 54.8404 6.33554C55.018 6.72461 55.2735 7.03375 55.6069 7.26297C55.9435 7.48918 56.347 7.60228 56.8176 7.60228ZM56.8877 6.98248C56.5387 6.98248 56.2458 6.89652 56.0089 6.72461C55.7752 6.54968 55.5992 6.31442 55.4807 6.01885C55.3654 5.72328 55.3078 5.39 55.3078 5.01903C55.3078 4.65107 55.3654 4.31931 55.4807 4.02373C55.596 3.72816 55.7705 3.49442 56.0043 3.3225C56.2411 3.15059 56.5402 3.06463 56.9017 3.06463C57.4284 3.06463 57.821 3.2471 58.0797 3.61204C58.3414 3.97397 58.4723 4.44296 58.4723 5.01903C58.4723 5.39604 58.4146 5.73233 58.2993 6.0279C58.184 6.32347 58.0095 6.55722 57.7758 6.72913C57.5421 6.89803 57.2461 6.98248 56.8877 6.98248Z" fill="#2A2E34"/>
<path d="M61.2329 1.65312H61.92V0.906644H61.2329V1.65312ZM61.2329 7.46656H61.92V2.58055H61.2329V7.46656Z" fill="#2A2E34"/>
<path d="M66.8177 7.46656V6.88295C66.4563 6.94025 66.1524 6.9493 65.9062 6.91009C65.6632 6.87089 65.4856 6.75024 65.3734 6.54817C65.3142 6.44261 65.2814 6.32196 65.2752 6.18624C65.2721 6.0475 65.2705 5.87559 65.2705 5.6705V3.15059H66.8177V2.58055H65.2705V1.22333H64.5881V2.58055H63.5083V3.15059H64.5881V5.69764C64.5881 5.93591 64.5912 6.14854 64.5974 6.33554C64.6068 6.52253 64.6566 6.705 64.747 6.88295C64.8592 7.10011 65.0228 7.25996 65.2378 7.3625C65.456 7.46505 65.7021 7.52235 65.9764 7.53442C66.2537 7.54648 66.5342 7.52386 66.8177 7.46656Z" fill="#2A2E34"/>
<path d="M70.0046 7.60228C70.8865 7.60228 71.5269 7.2871 71.9257 6.65675V7.46656H72.5381V4.4309C72.5381 4.24994 72.5287 4.07199 72.51 3.89706C72.4913 3.72213 72.4508 3.56378 72.3885 3.42203C72.2545 3.10534 72.0254 2.86406 71.7014 2.69818C71.3804 2.52928 70.9893 2.44483 70.5281 2.44483C69.9734 2.44483 69.5216 2.56547 69.1726 2.80676C68.8235 3.04804 68.5898 3.38735 68.4714 3.82467L69.1398 4.01468C69.2364 3.68895 69.4032 3.45068 69.64 3.29988C69.8799 3.14908 70.1729 3.07368 70.5188 3.07368C70.9987 3.07368 71.3414 3.18225 71.5471 3.39941C71.7528 3.61355 71.8587 3.94079 71.865 4.38113C71.6406 4.4113 71.3929 4.44296 71.1217 4.47614C70.8538 4.50932 70.5842 4.54702 70.3131 4.58924C70.042 4.63147 69.7927 4.67972 69.5652 4.73401C69.1881 4.83053 68.8796 4.99189 68.6397 5.21809C68.3997 5.44128 68.2798 5.75344 68.2798 6.15457C68.2798 6.41395 68.3437 6.65373 68.4714 6.8739C68.5992 7.09407 68.7908 7.27051 69.0464 7.40322C69.305 7.53593 69.6244 7.60228 70.0046 7.60228ZM70.0841 7.02772C69.8129 7.02772 69.5948 6.9855 69.4297 6.90105C69.2676 6.81358 69.1492 6.70349 69.0744 6.57079C69.0027 6.43507 68.9669 6.29633 68.9669 6.15457C68.9669 5.88916 69.0588 5.6901 69.2427 5.55739C69.4265 5.42469 69.626 5.32817 69.841 5.26785C70.1183 5.19547 70.4409 5.13666 70.8086 5.09141C71.1763 5.04617 71.5253 5.00395 71.8556 4.96474C71.8556 5.07633 71.8509 5.20452 71.8416 5.34929C71.8354 5.49104 71.8182 5.62224 71.7902 5.74288C71.7247 6.11084 71.544 6.41697 71.248 6.66127C70.955 6.90557 70.5671 7.02772 70.0841 7.02772Z" fill="#2A2E34"/>
<path d="M74.5963 7.46656H75.2834V0.816162H74.5963V7.46656Z" fill="#2A2E34"/>
</svg>
