<svg width="76" height="14" viewBox="0 0 76 14" fill="none" xmlns="http://www.w3.org/2000/svg">
<path d="M12.3562 0.0366211V12.8004H8.75671V2.89935H3.87167V12.8004H0.290527V0.0366211H12.3562Z" fill="#2A2E34"/>
<path d="M27.3169 0.0366211L21.9911 9.90119C21.428 10.9588 20.7362 11.7611 19.9159 12.3081C19.1079 12.8551 18.2202 13.1286 17.253 13.1286C16.5429 13.1286 15.7838 12.9706 14.9758 12.6545L15.8389 9.99236C16.3409 10.1382 16.7694 10.2112 17.1245 10.2112C17.4795 10.2112 17.7917 10.1322 18.0611 9.97413C18.3427 9.8161 18.5998 9.56691 18.8324 9.22654L13.8372 0.0366211H17.6754L20.6689 6.1997L23.7725 0.0366211H27.3169Z" fill="#2A2E34"/>
<path d="M45.9116 0.0366211V12.8004H28.4834V0.0366211H32.0645V9.93766H35.4253V0.0366211H39.0064V9.93766H42.3305V0.0366211H45.9116Z" fill="#2A2E34"/>
<path d="M53.8568 7.91369H52.204V12.8004H48.5861V0.0366211H52.204V4.99626H53.9486L57.0156 0.0366211H60.8355L56.8136 6.1997L60.8722 12.8004H56.7768L53.8568 7.91369Z" fill="#2A2E34"/>
<path d="M70.604 10.3206H65.168L64.1579 12.8004H60.4482L66.1229 0.0366211H69.7041L75.3972 12.8004H71.614L70.604 10.3206ZM69.5388 7.65842L67.886 3.57401L66.2331 7.65842H69.5388Z" fill="#2A2E34"/>
</svg>
