<svg width="348" height="92" viewBox="0 0 348 92" fill="none" xmlns="http://www.w3.org/2000/svg">
<path d="M1.12072 45.6441C-0.374668 46.3531 -0.373261 48.4766 1.12307 49.1836L23.2241 59.6253C24.2639 60.1165 24.6594 61.3903 24.0801 62.3819L14.4787 78.8148C13.5871 80.3408 15.0163 82.172 16.7179 81.6836L47.0745 72.9715C47.9606 72.7171 48.9048 73.1123 49.3439 73.9212L58.3139 90.4475C59.0729 91.8459 61.0979 91.8068 61.802 90.38L73.6216 66.4294C73.9321 65.8003 74.5559 65.3848 75.2573 65.3398L95.6462 64.0335C97.2452 63.9311 98.0546 62.0641 97.0343 60.8316L84.2136 45.3431C83.7531 44.7869 83.6364 44.0232 83.9098 43.3554L93.2647 20.503C93.8873 18.982 92.4693 17.4182 90.8901 17.8841L72.1215 23.4215L70.7869 29.7951L81.3989 26.2122C82.992 25.6743 84.4813 27.2531 83.8466 28.8069L77.8964 43.3716C77.6271 44.0309 77.7375 44.784 78.1848 45.3387L87.5695 56.9771C88.603 58.2587 87.6885 60.1636 86.0396 60.1636H71.9117C71.215 60.1636 70.5704 60.532 70.218 61.1316L60.9933 76.8274C60.2249 78.1348 58.3231 78.1137 57.5841 76.7895L53.6757 69.7865L52.3604 66.8865C51.9723 66.0309 51.0301 65.5704 50.1146 65.789L46.9801 66.5372L29.6174 71.6209C27.9006 72.1236 26.4595 70.2606 27.3822 68.7313L30.3649 63.7878L32.6774 60.0419C33.2942 59.0427 32.898 57.7304 31.8306 57.2373L27.885 55.4146L14.9206 49.1738C13.4428 48.4624 13.4397 46.3638 14.9153 45.6481L31.1088 37.7934L34.5097 36.2428C35.5042 35.7893 35.9357 34.6128 35.4696 33.6261L33.8367 30.17L27.9202 16.4732C27.2088 14.8263 28.9057 13.1707 30.5403 13.9169L46.9801 21.4219L50.1757 22.7781C51.0525 23.1502 52.0706 22.8405 52.5902 22.0436L54.5437 19.0474L57.915 13.4118C58.6828 12.1284 60.5505 12.1411 61.3006 13.4348L70.7869 29.7951L72.1215 23.4215L62.0152 1.15102C61.3671 -0.277162 59.3835 -0.404867 58.5567 0.928362L50.2494 14.3251C49.7277 15.1663 48.6594 15.4875 47.7588 15.074L19.1639 1.94577C17.5264 1.194 15.824 2.85635 16.5422 4.50565L27.9965 30.8077C28.4184 31.7763 27.9946 32.9041 27.0384 33.3573L1.12072 45.6441ZM40.0397 44.0253C38.0033 44.5348 38.0815 47.4479 40.1423 47.8479L45.4742 48.8829C46.8101 49.1422 47.4828 50.6457 46.7843 51.8109L44.324 55.9154C43.3298 57.5739 45.0886 59.5145 46.8425 58.6942L54.2128 55.2474C55.3811 54.701 56.7511 55.4082 56.9788 56.6753L58.1801 63.3589C58.5446 65.3867 61.3971 65.5508 61.9927 63.5781L64.3715 55.7005C64.6412 54.8073 65.5048 54.2278 66.4357 54.3154L73.3226 54.9629C75.076 55.1277 76.1434 53.0841 75.0034 51.7448L69.7248 45.544C69.1663 44.8878 69.1026 43.9449 69.5678 43.2199L74.4312 35.6414C75.4331 34.0802 73.9021 32.1329 72.1435 32.7315L68.371 34.0158C67.4725 34.3217 66.4833 33.9424 66.0214 33.1148L62.3876 26.6036C61.5426 25.0896 59.2881 25.3354 58.7908 26.9957L56.9211 33.2382C56.5416 34.5052 55.0386 35.0408 53.9404 34.3004L45.2243 28.4239C43.4793 27.2474 41.3542 29.2651 42.4457 31.062L47.5853 39.523C48.2702 40.6505 47.6656 42.1174 46.3838 42.4381L40.0397 44.0253Z" fill="url(#paint0_radial_455_3)"/>
<path d="M163.792 5.91895V43.0151H153.33V14.2391H139.132V43.0151H128.724V5.91895H163.792Z" fill="#2A2E34"/>
<path d="M207.273 5.91895L191.794 34.589C190.157 37.6626 188.147 39.9944 185.763 41.5842C183.414 43.1741 180.835 43.969 178.023 43.969C175.96 43.969 173.754 43.5097 171.405 42.5911L173.914 34.8539C175.373 35.2779 176.618 35.4899 177.65 35.4899C178.682 35.4899 179.589 35.2602 180.372 34.8009C181.19 34.3416 181.938 33.6174 182.614 32.6282L168.096 5.91895H179.251L187.951 23.8311L196.972 5.91895H207.273Z" fill="#2A2E34"/>
<path d="M261.316 5.91895V43.0151H210.663V5.91895H221.071V34.6949H230.839V5.91895H241.247V34.6949H250.908V5.91895H261.316Z" fill="#2A2E34"/>
<path d="M284.407 28.8126H279.604V43.0151H269.089V5.91895H279.604V20.3334H284.674L293.588 5.91895H304.69L293.001 23.8311L304.797 43.0151H292.894L284.407 28.8126Z" fill="#2A2E34"/>
<path d="M333.081 35.8078H317.282L314.346 43.0151H303.564L320.057 5.91895H330.465L347.011 43.0151H336.016L333.081 35.8078ZM329.985 28.0706L325.181 16.1999L320.377 28.0706H329.985Z" fill="#2A2E34"/>
<path d="M128.394 76.9212H130.187V74.9358C130.712 75.6721 131.378 76.255 132.184 76.6845C132.99 77.1053 133.927 77.3157 134.996 77.3157C136.373 77.3157 137.545 76.987 138.515 76.3295C139.484 75.6633 140.222 74.7648 140.729 73.6341C141.245 72.5033 141.503 71.2279 141.503 69.8078C141.503 68.3965 141.245 67.1255 140.729 65.9947C140.222 64.8639 139.488 63.9698 138.528 63.3124C137.568 62.655 136.418 62.3263 135.077 62.3263C134.063 62.3263 133.162 62.5104 132.374 62.8785C131.595 63.2379 130.939 63.7419 130.404 64.3906V57.9872H128.394V76.9212ZM134.792 75.5143C133.751 75.5143 132.89 75.2689 132.211 74.778C131.532 74.2783 131.025 73.599 130.689 72.74C130.354 71.8809 130.187 70.9035 130.187 69.8078C130.187 68.1336 130.563 66.7705 131.314 65.7186C132.075 64.658 133.221 64.1276 134.751 64.1276C135.802 64.1276 136.667 64.3775 137.346 64.8771C138.035 65.3767 138.546 66.0561 138.881 66.9151C139.216 67.7742 139.384 68.7384 139.384 69.8078C139.384 70.886 139.212 71.8546 138.868 72.7137C138.533 73.5727 138.025 74.2564 137.346 74.7648C136.667 75.2645 135.816 75.5143 134.792 75.5143Z" fill="#2A2E34"/>
<path d="M148.036 83.2325H150.033L157.912 62.7207H155.875L151.432 74.3967L146.609 62.7207H144.49L150.454 76.8818L148.036 83.2325Z" fill="#2A2E34"/>
<path d="M174.025 76.9212H176.09L181.416 62.7207H179.364L175.058 74.3967L170.724 62.7207H168.7L174.025 76.9212Z" fill="#2A2E34"/>
<path d="M191.707 77.3157C193.129 77.3157 194.402 76.9782 195.525 76.3032C196.657 75.6283 197.513 74.6684 198.092 73.4237L196.231 72.7268C195.298 74.5501 193.763 75.4617 191.626 75.4617C190.159 75.4617 189.008 75.0191 188.175 74.1337C187.351 73.2484 186.898 71.9905 186.817 70.3601H198.378C198.45 67.8531 197.884 65.8895 196.68 64.4695C195.484 63.0407 193.8 62.3263 191.626 62.3263C190.213 62.3263 188.986 62.6331 187.944 63.2467C186.912 63.8603 186.11 64.7325 185.54 65.8632C184.969 66.994 184.684 68.3352 184.684 69.8867C184.684 71.3857 184.969 72.6918 185.54 73.805C186.119 74.9182 186.934 75.7817 187.985 76.3953C189.045 77.0089 190.285 77.3157 191.707 77.3157ZM191.68 64.1013C194.443 64.1013 195.978 65.6485 196.286 68.7428H186.857C187.011 67.2438 187.501 66.0955 188.325 65.2979C189.149 64.5002 190.267 64.1013 191.68 64.1013Z" fill="#2A2E34"/>
<path d="M203.566 76.9212H205.563V69.8341C205.563 68.9838 205.663 68.138 205.862 67.2964C206.07 66.4462 206.541 65.7405 207.275 65.1795C207.809 64.7588 208.389 64.5177 209.014 64.4563C209.648 64.3862 210.237 64.4125 210.78 64.5352V62.7207C210.137 62.5629 209.408 62.5586 208.593 62.7076C207.778 62.8478 207.08 63.1634 206.501 63.6543C206.066 63.9698 205.686 64.4081 205.359 64.9691V62.7207H203.566V76.9212Z" fill="#2A2E34"/>
<path d="M215.517 76.9212H217.528V69.3476C217.528 67.7435 217.899 66.4856 218.642 65.574C219.384 64.6623 220.462 64.2065 221.875 64.2065C222.898 64.2065 223.723 64.4476 224.348 64.9297C224.972 65.403 225.425 66.0517 225.706 66.8757C225.987 67.6997 226.127 68.6332 226.127 69.6763V76.9212H228.138V69.1109C228.138 68.3133 228.034 67.5156 227.825 66.7179C227.626 65.9202 227.3 65.1927 226.847 64.5352C226.394 63.8778 225.792 63.3519 225.04 62.9574C224.289 62.5629 223.36 62.3657 222.255 62.3657C221.205 62.3657 220.254 62.5629 219.403 62.9574C218.56 63.3431 217.867 63.9216 217.324 64.693V62.7207H215.517V76.9212Z" fill="#2A2E34"/>
<path d="M239.858 77.3157C241.307 77.3157 242.547 77.0001 243.58 76.369C244.621 75.7378 245.418 74.8613 245.971 73.7393C246.532 72.6085 246.813 71.298 246.813 69.8078C246.813 68.3439 246.537 67.051 245.985 65.929C245.441 64.7982 244.649 63.9173 243.607 63.2861C242.575 62.6462 241.325 62.3263 239.858 62.3263C238.427 62.3263 237.19 62.6418 236.149 63.273C235.116 63.8953 234.319 64.7675 233.758 65.8895C233.196 67.0116 232.916 68.3176 232.916 69.8078C232.916 71.2717 233.187 72.569 233.731 73.6998C234.283 74.8306 235.076 75.7159 236.108 76.3558C237.15 76.9957 238.399 77.3157 239.858 77.3157ZM239.858 75.4617C238.273 75.4617 237.073 74.9489 236.258 73.9233C235.442 72.889 235.035 71.5171 235.035 69.8078C235.035 68.1511 235.429 66.8012 236.217 65.7581C237.005 64.7062 238.218 64.1802 239.858 64.1802C241.479 64.1802 242.688 64.693 243.485 65.7186C244.291 66.7354 244.694 68.0985 244.694 69.8078C244.694 71.4821 244.295 72.8452 243.498 73.897C242.701 74.9402 241.488 75.4617 239.858 75.4617Z" fill="#2A2E34"/>
<path d="M251.833 76.9212H254.156V74.6728H251.833V76.9212Z" fill="#2A2E34"/>
<path d="M266.218 77.3157C267.286 77.3157 268.224 77.1053 269.03 76.6845C269.836 76.255 270.501 75.6721 271.027 74.9358V76.9212H272.82V57.9872H270.809V64.3906C270.275 63.7419 269.614 63.2379 268.826 62.8785C268.047 62.5104 267.15 62.3263 266.136 62.3263C264.796 62.3263 263.645 62.655 262.685 63.3124C261.725 63.9698 260.987 64.8639 260.471 65.9947C259.964 67.1255 259.71 68.3965 259.71 69.8078C259.71 71.2279 259.964 72.5033 260.471 73.6341C260.987 74.7648 261.73 75.6633 262.699 76.3295C263.677 76.987 264.85 77.3157 266.218 77.3157ZM266.421 75.5143C265.407 75.5143 264.556 75.2645 263.867 74.7648C263.188 74.2564 262.676 73.5727 262.332 72.7137C261.997 71.8546 261.83 70.886 261.83 69.8078C261.83 68.7384 261.997 67.7742 262.332 66.9151C262.667 66.0561 263.174 65.3767 263.854 64.8771C264.542 64.3775 265.412 64.1276 266.462 64.1276C267.993 64.1276 269.134 64.658 269.886 65.7186C270.646 66.7705 271.027 68.1336 271.027 69.8078C271.027 70.9035 270.859 71.8809 270.524 72.74C270.189 73.599 269.682 74.2783 269.003 74.778C268.323 75.2689 267.463 75.5143 266.421 75.5143Z" fill="#2A2E34"/>
<path d="M279.077 60.0253H281.074V57.8557H279.077V60.0253ZM279.077 76.9212H281.074V62.7207H279.077V76.9212Z" fill="#2A2E34"/>
<path d="M293.012 77.3157C293.999 77.3157 294.878 77.1316 295.648 76.7634C296.418 76.3953 297.065 75.8869 297.59 75.2382V76.6977C297.6 78.3632 297.26 79.6211 296.572 80.4713C295.883 81.3216 294.742 81.7468 293.148 81.7468C292.378 81.7468 291.622 81.5714 290.879 81.2208C290.137 80.8789 289.566 80.3136 289.168 79.5246L287.361 80.4976C287.986 81.6021 288.823 82.3998 289.874 82.8907C290.934 83.3816 292.025 83.627 293.148 83.627C294.941 83.627 296.372 83.2501 297.441 82.4962C298.51 81.7424 299.175 80.5721 299.438 78.9855C299.501 78.6262 299.542 78.258 299.56 77.8811C299.587 77.5129 299.601 77.1272 299.601 76.724V62.7207H297.821V64.6799C297.287 63.9435 296.608 63.3694 295.784 62.9574C294.969 62.5366 294.018 62.3263 292.931 62.3263C291.59 62.3263 290.44 62.655 289.48 63.3124C288.52 63.9698 287.782 64.8639 287.266 65.9947C286.759 67.1255 286.505 68.3965 286.505 69.8078C286.505 71.2279 286.759 72.5033 287.266 73.6341C287.782 74.7648 288.525 75.6633 289.494 76.3295C290.472 76.987 291.645 77.3157 293.012 77.3157ZM293.216 75.5143C292.202 75.5143 291.35 75.2645 290.662 74.7648C289.983 74.2564 289.471 73.5727 289.127 72.7137C288.792 71.8546 288.624 70.886 288.624 69.8078C288.624 68.7384 288.792 67.7742 289.127 66.9151C289.462 66.0561 289.969 65.3767 290.648 64.8771C291.337 64.3775 292.206 64.1276 293.257 64.1276C294.787 64.1276 295.929 64.658 296.68 65.7186C297.441 66.7705 297.821 68.1336 297.821 69.8078C297.821 70.9035 297.654 71.8809 297.319 72.74C296.984 73.599 296.476 74.2783 295.797 74.778C295.118 75.2689 294.258 75.5143 293.216 75.5143Z" fill="#2A2E34"/>
<path d="M305.845 60.0253H307.842V57.8557H305.845V60.0253ZM305.845 76.9212H307.842V62.7207H305.845V76.9212Z" fill="#2A2E34"/>
<path d="M322.076 76.9212V75.225C321.026 75.3916 320.143 75.4179 319.427 75.3039C318.721 75.19 318.205 74.8394 317.878 74.2521C317.706 73.9452 317.611 73.5946 317.593 73.2002C317.584 72.7969 317.58 72.2973 317.58 71.7012V64.3775H322.076V62.7207H317.58V58.7761H315.596V62.7207H312.458V64.3775H315.596V71.7801C315.596 72.4726 315.605 73.0906 315.623 73.6341C315.65 74.1775 315.795 74.7079 316.058 75.225C316.384 75.8562 316.86 76.3208 317.485 76.6188C318.118 76.9168 318.834 77.0834 319.631 77.1184C320.437 77.1535 321.252 77.0878 322.076 76.9212Z" fill="#2A2E34"/>
<path d="M331.338 77.3157C333.902 77.3157 335.763 76.3997 336.922 74.5676V76.9212H338.702V68.0985C338.702 67.5726 338.674 67.0554 338.62 66.547C338.566 66.0386 338.448 65.5784 338.267 65.1664C337.877 64.246 337.212 63.5447 336.27 63.0626C335.337 62.5717 334.2 62.3263 332.86 62.3263C331.248 62.3263 329.935 62.6769 328.92 63.3782C327.906 64.0794 327.227 65.0656 326.882 66.3366L328.825 66.8888C329.106 65.9421 329.59 65.2496 330.279 64.8114C330.976 64.3731 331.828 64.1539 332.833 64.1539C334.228 64.1539 335.224 64.4695 335.822 65.1006C336.419 65.723 336.727 66.6741 336.745 67.9539C336.093 68.0415 335.373 68.1336 334.585 68.23C333.806 68.3264 333.023 68.436 332.235 68.5587C331.447 68.6814 330.723 68.8217 330.061 68.9795C328.966 69.26 328.069 69.7289 327.372 70.3864C326.674 71.035 326.326 71.9423 326.326 73.1081C326.326 73.862 326.511 74.5589 326.882 75.1987C327.254 75.8386 327.811 76.3514 328.553 76.7371C329.305 77.1228 330.234 77.3157 331.338 77.3157ZM331.569 75.6458C330.781 75.6458 330.147 75.5231 329.667 75.2776C329.197 75.0234 328.852 74.7035 328.635 74.3178C328.427 73.9233 328.323 73.5201 328.323 73.1081C328.323 72.3367 328.59 71.7582 329.124 71.3725C329.658 70.9868 330.238 70.7063 330.863 70.531C331.669 70.3206 332.606 70.1497 333.675 70.0182C334.744 69.8867 335.758 69.764 336.718 69.65C336.718 69.9744 336.705 70.3469 336.677 70.7677C336.659 71.1797 336.61 71.561 336.528 71.9116C336.338 72.981 335.813 73.8707 334.952 74.5808C334.101 75.2908 332.973 75.6458 331.569 75.6458Z" fill="#2A2E34"/>
<path d="M344.684 76.9212H346.681V57.5928H344.684V76.9212Z" fill="#2A2E34"/>
<defs>
<radialGradient id="paint0_radial_455_3" cx="0" cy="0" r="1" gradientUnits="userSpaceOnUse" gradientTransform="translate(61.1926 43.8311) rotate(8.51074) scale(59.5591 55.9951)">
<stop stop-color="#FF421D"/>
<stop offset="1" stop-color="#FBBF00"/>
</radialGradient>
</defs>
</svg>
