<svg width="422" height="154" viewBox="0 0 422 154" fill="none" xmlns="http://www.w3.org/2000/svg">
<path fill-rule="evenodd" clip-rule="evenodd" d="M29 0C12.9837 0 0 12.9838 0 29V93.8446C0 109.662 12.6637 122.522 28.4055 122.839L45.9082 153.111L63.4074 122.845H392.649C408.666 122.845 421.649 109.861 421.649 93.8446V29C421.649 12.9837 408.666 0 392.649 0H29Z" fill="#F0F0F0" fill-opacity="0.85"/>
<path d="M60.899 47.0254C61.7694 47.2624 62.4485 47.6772 62.9364 48.2698C63.4243 48.8492 63.6683 49.5471 63.6683 50.3636C63.6683 51.18 63.4045 51.8977 62.8771 52.5166C62.3628 53.1223 61.6705 53.5898 60.8001 53.919C59.943 54.2351 59.0067 54.3931 57.9913 54.3931C57.0682 54.3931 56.1517 54.2548 55.2418 53.9783C54.3319 53.7017 53.5012 53.2869 52.7495 52.7339L53.4418 51.2722C54.0484 51.7462 54.7275 52.1018 55.4792 52.3388C56.2309 52.5758 56.9891 52.6944 57.7539 52.6944C58.8616 52.6944 59.7913 52.4639 60.543 52.003C61.2946 51.529 61.6705 50.8837 61.6705 50.0673C61.6705 49.3694 61.3869 48.836 60.8199 48.4673C60.2529 48.0855 59.4551 47.8945 58.4265 47.8945H55.3407V46.2946H58.288C59.1715 46.2946 59.8573 46.1168 60.3452 45.7612C60.8463 45.3925 61.0968 44.8856 61.0968 44.2403C61.0968 43.5161 60.7737 42.9432 60.1276 42.5218C59.4814 42.1005 58.6638 41.8898 57.6748 41.8898C57.0287 41.8898 56.3693 41.9819 55.6968 42.1663C55.0374 42.3507 54.4111 42.6272 53.8177 42.9959L53.1847 41.3762C53.8836 40.9812 54.6221 40.6849 55.4001 40.4873C56.1781 40.2898 56.9561 40.1911 57.7342 40.1911C58.71 40.1911 59.6067 40.3425 60.4243 40.6454C61.2419 40.9482 61.888 41.3894 62.3628 41.9688C62.8507 42.5482 63.0946 43.2263 63.0946 44.0033C63.0946 44.7012 62.8968 45.3135 62.5012 45.8403C62.1188 46.367 61.5847 46.762 60.899 47.0254Z" fill="black"/>
<path d="M70.3857 43.6675C71.8363 43.6675 72.944 44.023 73.7088 44.7341C74.4869 45.4452 74.8759 46.5053 74.8759 47.9143V54.2351H73.0759V52.8524C72.7594 53.3396 72.3044 53.7149 71.711 53.9783C71.1308 54.2285 70.4385 54.3536 69.6341 54.3536C68.4604 54.3536 67.5176 54.0704 66.8055 53.5042C66.1066 52.938 65.7571 52.194 65.7571 51.2722C65.7571 50.3504 66.0934 49.613 66.7659 49.0599C67.4384 48.4937 68.5066 48.2106 69.9703 48.2106H72.977V47.8353C72.977 47.0188 72.7396 46.3933 72.2649 45.9588C71.7901 45.5242 71.0912 45.3069 70.1681 45.3069C69.5484 45.3069 68.9418 45.4123 68.3483 45.623C67.7549 45.8205 67.2538 46.0905 66.845 46.4328L66.0538 45.0107C66.5945 44.5761 67.2406 44.2469 67.9923 44.023C68.744 43.786 69.5418 43.6675 70.3857 43.6675ZM69.9506 52.8919C70.6758 52.8919 71.3022 52.7339 71.8297 52.4178C72.3572 52.0886 72.7396 51.6277 72.977 51.0352V49.5735H70.0495C68.4407 49.5735 67.6363 50.1134 67.6363 51.1932C67.6363 51.7199 67.8406 52.1347 68.2494 52.4376C68.6582 52.7404 69.2253 52.8919 69.9506 52.8919Z" fill="black"/>
<path d="M88.0074 43.7662V54.2351H86.1085V45.4255H80.1942V54.2351H78.2952V43.7662H88.0074Z" fill="black"/>
<path d="M101.038 43.7662L95.9543 55.2819C95.506 56.3486 94.9785 57.0992 94.3719 57.5337C93.7785 57.9683 93.0598 58.1855 92.2158 58.1855C91.7015 58.1855 91.2004 58.0999 90.7125 57.9288C90.2378 57.7707 89.8422 57.5337 89.5257 57.2177L90.3367 55.7955C90.8774 56.3091 91.5037 56.5658 92.2158 56.5658C92.6774 56.5658 93.0598 56.4407 93.3631 56.1905C93.6796 55.9535 93.9631 55.5387 94.2137 54.9461L94.5499 54.2153L89.9213 43.7662H91.8993L95.5587 52.1413L99.1785 43.7662H101.038Z" fill="black"/>
<path d="M107.262 54.3536C106.193 54.3536 105.237 54.1231 104.393 53.6622C103.563 53.2013 102.91 52.5693 102.435 51.766C101.96 50.9496 101.723 50.0278 101.723 49.0007C101.723 47.9735 101.96 47.0583 102.435 46.2551C102.91 45.4386 103.563 44.8065 104.393 44.3588C105.237 43.8979 106.193 43.6675 107.262 43.6675C108.211 43.6675 109.055 43.8584 109.793 44.2403C110.545 44.6222 111.125 45.1753 111.534 45.8995L110.09 46.8279C109.761 46.3275 109.352 45.9522 108.864 45.702C108.376 45.4518 107.835 45.3267 107.242 45.3267C106.556 45.3267 105.936 45.4781 105.382 45.781C104.842 46.0839 104.413 46.5184 104.097 47.0847C103.793 47.6377 103.642 48.2764 103.642 49.0007C103.642 49.7381 103.793 50.3899 104.097 50.9561C104.413 51.5092 104.842 51.9372 105.382 52.2401C105.936 52.5429 106.556 52.6944 107.242 52.6944C107.835 52.6944 108.376 52.5693 108.864 52.3191C109.352 52.0689 109.761 51.6936 110.09 51.1932L111.534 52.1018C111.125 52.826 110.545 53.3857 109.793 53.7807C109.055 54.1626 108.211 54.3536 107.262 54.3536Z" fill="black"/>
<path d="M118.067 49.8105H115.892V54.2351H113.993V43.7662H115.892V48.1908H118.107L121.509 43.7662H123.547L119.571 48.8031L123.823 54.2351H121.588L118.067 49.8105Z" fill="black"/>
<path d="M129.36 43.6675C130.81 43.6675 131.918 44.023 132.683 44.7341C133.461 45.4452 133.85 46.5053 133.85 47.9143V54.2351H132.05V52.8524C131.733 53.3396 131.279 53.7149 130.685 53.9783C130.105 54.2285 129.413 54.3536 128.608 54.3536C127.435 54.3536 126.492 54.0704 125.78 53.5042C125.081 52.938 124.731 52.194 124.731 51.2722C124.731 50.3504 125.067 49.613 125.74 49.0599C126.413 48.4937 127.481 48.2106 128.944 48.2106H131.951V47.8353C131.951 47.0188 131.714 46.3933 131.239 45.9588C130.764 45.5242 130.065 45.3069 129.142 45.3069C128.522 45.3069 127.916 45.4123 127.322 45.623C126.729 45.8205 126.228 46.0905 125.819 46.4328L125.028 45.0107C125.569 44.5761 126.215 44.2469 126.966 44.023C127.718 43.786 128.516 43.6675 129.36 43.6675ZM128.925 52.8919C129.65 52.8919 130.276 52.7339 130.804 52.4178C131.331 52.0886 131.714 51.6277 131.951 51.0352V49.5735H129.024C127.415 49.5735 126.61 50.1134 126.61 51.1932C126.61 51.7199 126.815 52.1347 127.224 52.4376C127.632 52.7404 128.199 52.8919 128.925 52.8919Z" fill="black"/>
<path d="M146.744 49.0599C146.744 49.2048 146.731 49.3957 146.705 49.6327H138.199C138.318 50.5545 138.72 51.2985 139.406 51.8648C140.105 52.4178 140.968 52.6944 141.997 52.6944C143.25 52.6944 144.258 52.273 145.023 51.4302L146.072 52.6549C145.597 53.2079 145.003 53.6293 144.291 53.919C143.592 54.2087 142.808 54.3536 141.938 54.3536C140.83 54.3536 139.847 54.1297 138.99 53.682C138.133 53.2211 137.467 52.5824 136.992 51.766C136.531 50.9496 136.3 50.0278 136.3 49.0007C136.3 47.9867 136.524 47.0715 136.973 46.2551C137.434 45.4386 138.061 44.8065 138.852 44.3588C139.656 43.8979 140.559 43.6675 141.562 43.6675C142.564 43.6675 143.454 43.8979 144.232 44.3588C145.023 44.8065 145.636 45.4386 146.072 46.2551C146.52 47.0715 146.744 48.0064 146.744 49.0599ZM141.562 45.2674C140.652 45.2674 139.887 45.544 139.267 46.097C138.661 46.6501 138.305 47.3744 138.199 48.2698H144.924C144.819 47.3875 144.456 46.6699 143.836 46.1168C143.23 45.5506 142.472 45.2674 141.562 45.2674Z" fill="black"/>
<path d="M161.776 43.7662V54.2351H160.055V46.5909L156.138 53.0499H155.308L151.431 46.5711V54.2351H149.69V43.7662H151.648L155.763 50.8376L159.996 43.7662H161.776Z" fill="black"/>
<path d="M179.151 43.7662V54.2351H177.252V50.008C176.118 50.5348 174.991 50.7981 173.87 50.7981C172.564 50.7981 171.555 50.4953 170.843 49.8895C170.131 49.2838 169.775 48.3752 169.775 47.1637V43.7662H171.674V47.0452C171.674 47.7694 171.898 48.3159 172.347 48.6846C172.808 49.0533 173.448 49.2377 174.265 49.2377C175.188 49.2377 176.184 49.0072 177.252 48.5463V43.7662H179.151Z" fill="black"/>
<path d="M192.312 49.0599C192.312 49.2048 192.299 49.3957 192.273 49.6327H183.767C183.886 50.5545 184.288 51.2985 184.974 51.8648C185.673 52.4178 186.537 52.6944 187.565 52.6944C188.818 52.6944 189.827 52.273 190.592 51.4302L191.64 52.6549C191.165 53.2079 190.572 53.6293 189.86 53.919C189.161 54.2087 188.376 54.3536 187.506 54.3536C186.398 54.3536 185.416 54.1297 184.558 53.682C183.701 53.2211 183.035 52.5824 182.561 51.766C182.099 50.9496 181.868 50.0278 181.868 49.0007C181.868 47.9867 182.093 47.0715 182.541 46.2551C183.002 45.4386 183.629 44.8065 184.42 44.3588C185.224 43.8979 186.128 43.6675 187.13 43.6675C188.132 43.6675 189.022 43.8979 189.8 44.3588C190.592 44.8065 191.205 45.4386 191.64 46.2551C192.088 47.0715 192.312 48.0064 192.312 49.0599ZM187.13 45.2674C186.22 45.2674 185.455 45.544 184.835 46.097C184.229 46.6501 183.873 47.3744 183.767 48.2698H190.493C190.387 47.3875 190.024 46.6699 189.405 46.1168C188.798 45.5506 188.04 45.2674 187.13 45.2674Z" fill="black"/>
<path d="M200.817 43.6675C201.832 43.6675 202.742 43.8913 203.546 44.3391C204.351 44.7868 204.977 45.4123 205.425 46.2156C205.887 47.0188 206.118 47.9472 206.118 49.0007C206.118 50.0541 205.887 50.9891 205.425 51.8055C204.977 52.6088 204.351 53.2343 203.546 53.682C202.742 54.1297 201.832 54.3536 200.817 54.3536C200.065 54.3536 199.373 54.2087 198.74 53.919C198.12 53.6293 197.592 53.2079 197.157 52.6549V58.067H195.258V43.7662H197.078V45.4255C197.5 44.8461 198.034 44.4115 198.68 44.1218C199.326 43.8189 200.039 43.6675 200.817 43.6675ZM200.658 52.6944C201.331 52.6944 201.931 52.5429 202.458 52.2401C202.999 51.924 203.421 51.4895 203.724 50.9364C204.041 50.3702 204.199 49.7249 204.199 49.0007C204.199 48.2764 204.041 47.6377 203.724 47.0847C203.421 46.5184 202.999 46.0839 202.458 45.781C201.931 45.4781 201.331 45.3267 200.658 45.3267C199.999 45.3267 199.399 45.4847 198.858 45.8008C198.331 46.1036 197.909 46.5316 197.592 47.0847C197.289 47.6377 197.137 48.2764 197.137 49.0007C197.137 49.7249 197.289 50.3702 197.592 50.9364C197.896 51.4895 198.318 51.924 198.858 52.2401C199.399 52.5429 199.999 52.6944 200.658 52.6944Z" fill="black"/>
<path d="M218.351 49.0599C218.351 49.2048 218.338 49.3957 218.312 49.6327H209.806C209.925 50.5545 210.327 51.2985 211.013 51.8648C211.712 52.4178 212.576 52.6944 213.604 52.6944C214.857 52.6944 215.866 52.273 216.631 51.4302L217.679 52.6549C217.204 53.2079 216.611 53.6293 215.899 53.919C215.2 54.2087 214.415 54.3536 213.545 54.3536C212.437 54.3536 211.455 54.1297 210.597 53.682C209.74 53.2211 209.074 52.5824 208.6 51.766C208.138 50.9496 207.907 50.0278 207.907 49.0007C207.907 47.9867 208.132 47.0715 208.58 46.2551C209.041 45.4386 209.668 44.8065 210.459 44.3588C211.263 43.8979 212.167 43.6675 213.169 43.6675C214.171 43.6675 215.061 43.8979 215.839 44.3588C216.631 44.8065 217.244 45.4386 217.679 46.2551C218.127 47.0715 218.351 48.0064 218.351 49.0599ZM213.169 45.2674C212.259 45.2674 211.494 45.544 210.874 46.097C210.268 46.6501 209.912 47.3744 209.806 48.2698H216.532C216.426 47.3875 216.063 46.6699 215.444 46.1168C214.837 45.5506 214.079 45.2674 213.169 45.2674Z" fill="black"/>
<path d="M226.742 48.7834C227.441 48.9677 227.982 49.264 228.364 49.6722C228.747 50.0805 228.938 50.5874 228.938 51.1932C228.938 51.8121 228.727 52.3652 228.305 52.8524C227.883 53.3264 227.296 53.7017 226.545 53.9783C225.806 54.2416 224.975 54.3733 224.052 54.3733C223.274 54.3733 222.509 54.2746 221.758 54.077C221.019 53.8663 220.36 53.5701 219.78 53.1882L220.353 51.7462C220.854 52.0623 221.428 52.3125 222.074 52.4968C222.72 52.668 223.373 52.7536 224.033 52.7536C224.929 52.7536 225.641 52.6022 226.169 52.2993C226.709 51.9833 226.98 51.5619 226.98 51.0352C226.98 50.5479 226.762 50.1726 226.327 49.9093C225.905 49.6459 225.305 49.5142 224.527 49.5142H222.608V48.1513H224.389C225.101 48.1513 225.661 48.0262 226.07 47.776C226.479 47.5258 226.683 47.1834 226.683 46.7489C226.683 46.2748 226.439 45.9061 225.951 45.6427C225.477 45.3794 224.83 45.2477 224.013 45.2477C222.971 45.2477 221.87 45.5176 220.709 46.0575L220.195 44.5959C221.474 43.9506 222.813 43.628 224.211 43.628C225.055 43.628 225.813 43.7465 226.485 43.9835C227.158 44.2206 227.685 44.5563 228.068 44.9909C228.45 45.4255 228.641 45.9193 228.641 46.4723C228.641 46.9859 228.47 47.4468 228.127 47.855C227.784 48.2632 227.323 48.5727 226.742 48.7834Z" fill="black"/>
<path d="M240.539 40.4083V54.2351H238.581V42.1268H235.456V40.4083H240.539Z" fill="black"/>
<path d="M255.614 50.8376H252.983V54.2351H251.065V50.8376H243.37V49.455L250.452 40.4083H252.588L245.803 49.1389H251.124V46.1365H252.983V49.1389H255.614V50.8376Z" fill="black"/>
<path d="M273.664 52.5758V56.6646H271.884V54.2351H263.121V56.6646H261.321V52.5758H261.875C262.547 52.5363 263.009 52.0623 263.259 51.1537C263.51 50.2451 263.681 48.9611 263.774 47.3019L263.932 43.7662H272.062V52.5758H273.664ZM265.514 47.4402C265.462 48.757 265.349 49.85 265.178 50.7191C265.02 51.5751 264.723 52.194 264.288 52.5758H270.163V45.4255H265.613L265.514 47.4402Z" fill="black"/>
<path d="M276.138 43.7662H278.037V48.2106H284.01V43.7662H285.909V54.2351H284.01V49.85H278.037V54.2351H276.138V43.7662Z" fill="black"/>
<path d="M299.076 49.0599C299.076 49.2048 299.063 49.3957 299.037 49.6327H290.531C290.65 50.5545 291.052 51.2985 291.738 51.8648C292.437 52.4178 293.3 52.6944 294.329 52.6944C295.582 52.6944 296.59 52.273 297.355 51.4302L298.404 52.6549C297.929 53.2079 297.336 53.6293 296.623 53.919C295.925 54.2087 295.14 54.3536 294.27 54.3536C293.162 54.3536 292.179 54.1297 291.322 53.682C290.465 53.2211 289.799 52.5824 289.324 51.766C288.863 50.9496 288.632 50.0278 288.632 49.0007C288.632 47.9867 288.856 47.0715 289.305 46.2551C289.766 45.4386 290.393 44.8065 291.184 44.3588C291.988 43.8979 292.892 43.6675 293.894 43.6675C294.896 43.6675 295.786 43.8979 296.564 44.3588C297.355 44.8065 297.968 45.4386 298.404 46.2551C298.852 47.0715 299.076 48.0064 299.076 49.0599ZM293.894 45.2674C292.984 45.2674 292.219 45.544 291.599 46.097C290.993 46.6501 290.637 47.3744 290.531 48.2698H297.256C297.151 47.3875 296.788 46.6699 296.168 46.1168C295.562 45.5506 294.804 45.2674 293.894 45.2674Z" fill="black"/>
<path d="M302.022 43.7662H303.921V51.3907L310.35 43.7662H312.071V54.2351H310.172V46.6106L303.763 54.2351H302.022V43.7662ZM306.928 42.4033C305.952 42.4033 305.194 42.1729 304.653 41.712C304.112 41.2379 303.835 40.5598 303.822 39.6775H305.108C305.121 40.1647 305.286 40.5598 305.602 40.8626C305.932 41.1523 306.367 41.2972 306.908 41.2972C307.448 41.2972 307.884 41.1523 308.213 40.8626C308.543 40.5598 308.714 40.1647 308.728 39.6775H310.053C310.04 40.5598 309.756 41.2379 309.202 41.712C308.648 42.1729 307.89 42.4033 306.928 42.4033Z" fill="black"/>
<path d="M63.6683 71.5993V82.0681H61.7694V73.2585H55.855V82.0681H53.9561V71.5993H63.6683Z" fill="black"/>
<path d="M72.9009 71.5005C73.9163 71.5005 74.8262 71.7244 75.6306 72.1721C76.435 72.6198 77.0614 73.2453 77.5097 74.0486C77.9713 74.8518 78.2021 75.7802 78.2021 76.8337C78.2021 77.8871 77.9713 78.8221 77.5097 79.6385C77.0614 80.4418 76.435 81.0673 75.6306 81.515C74.8262 81.9627 73.9163 82.1866 72.9009 82.1866C72.1493 82.1866 71.457 82.0417 70.824 81.752C70.2042 81.4623 69.6767 81.0409 69.2416 80.4879V85.9H67.3426V71.5993H69.1624V73.2585C69.5844 72.6791 70.1185 72.2445 70.7646 71.9548C71.4108 71.6519 72.1229 71.5005 72.9009 71.5005ZM72.7427 80.5274C73.4152 80.5274 74.0152 80.3759 74.5427 80.0731C75.0834 79.757 75.5053 79.3225 75.8086 78.7694C76.1251 78.2032 76.2834 77.5579 76.2834 76.8337C76.2834 76.1094 76.1251 75.4707 75.8086 74.9177C75.5053 74.3514 75.0834 73.9169 74.5427 73.614C74.0152 73.3111 73.4152 73.1597 72.7427 73.1597C72.0833 73.1597 71.4833 73.3177 70.9427 73.6338C70.4152 73.9366 69.9932 74.3646 69.6767 74.9177C69.3734 75.4707 69.2218 76.1094 69.2218 76.8337C69.2218 77.5579 69.3734 78.2032 69.6767 78.7694C69.98 79.3225 70.402 79.757 70.9427 80.0731C71.4833 80.3759 72.0833 80.5274 72.7427 80.5274Z" fill="black"/>
<path d="M85.4511 82.1866C84.4093 82.1866 83.4731 81.9561 82.6423 81.4952C81.8115 81.0343 81.1588 80.4023 80.684 79.599C80.2225 78.7826 79.9917 77.8608 79.9917 76.8337C79.9917 75.8065 80.2225 74.8913 80.684 74.0881C81.1588 73.2716 81.8115 72.6396 82.6423 72.1918C83.4731 71.7309 84.4093 71.5005 85.4511 71.5005C86.4929 71.5005 87.4225 71.7309 88.2401 72.1918C89.0709 72.6396 89.7171 73.2716 90.1786 74.0881C90.6533 74.8913 90.8907 75.8065 90.8907 76.8337C90.8907 77.8608 90.6533 78.7826 90.1786 79.599C89.7171 80.4023 89.0709 81.0343 88.2401 81.4952C87.4225 81.9561 86.4929 82.1866 85.4511 82.1866ZM85.4511 80.5274C86.1236 80.5274 86.7236 80.3759 87.2511 80.0731C87.7918 79.757 88.2138 79.3225 88.5171 78.7694C88.8204 78.2032 88.972 77.5579 88.972 76.8337C88.972 76.1094 88.8204 75.4707 88.5171 74.9177C88.2138 74.3514 87.7918 73.9169 87.2511 73.614C86.7236 73.3111 86.1236 73.1597 85.4511 73.1597C84.7786 73.1597 84.172 73.3111 83.6313 73.614C83.1038 73.9169 82.6818 74.3514 82.3654 74.9177C82.0621 75.4707 81.9104 76.1094 81.9104 76.8337C81.9104 77.5579 82.0621 78.2032 82.3654 78.7694C82.6818 79.3225 83.1038 79.757 83.6313 80.0731C84.172 80.3759 84.7786 80.5274 85.4511 80.5274Z" fill="black"/>
<path d="M104.217 80.4089V84.4976H102.437V82.0681H93.6742V84.4976H91.8742V80.4089H92.428C93.1005 80.3693 93.5621 79.8953 93.8126 78.9867C94.0632 78.0781 94.2346 76.7942 94.3269 75.1349L94.4852 71.5993H102.615V80.4089H104.217ZM96.0676 75.2732C96.0149 76.59 95.9028 77.683 95.7313 78.5521C95.5731 79.4081 95.2764 80.027 94.8412 80.4089H100.716V73.2585H96.1665L96.0676 75.2732Z" fill="black"/>
<path d="M110.429 71.5005C111.88 71.5005 112.988 71.856 113.752 72.5671C114.531 73.2782 114.92 74.3383 114.92 75.7473V82.0681H113.12V80.6854C112.803 81.1726 112.348 81.5479 111.755 81.8113C111.174 82.0615 110.482 82.1866 109.678 82.1866C108.504 82.1866 107.561 81.9035 106.849 81.3372C106.15 80.771 105.801 80.027 105.801 79.1052C105.801 78.1834 106.137 77.446 106.81 76.8929C107.482 76.3267 108.55 76.0436 110.014 76.0436H113.021V75.6683C113.021 74.8518 112.783 74.2263 112.309 73.7918C111.834 73.3572 111.135 73.1399 110.212 73.1399C109.592 73.1399 108.985 73.2453 108.392 73.456C107.799 73.6535 107.297 73.9235 106.889 74.2658L106.097 72.8437C106.638 72.4091 107.284 72.0799 108.036 71.856C108.788 71.619 109.585 71.5005 110.429 71.5005ZM109.994 80.7249C110.719 80.7249 111.346 80.5669 111.873 80.2508C112.401 79.9216 112.783 79.4607 113.021 78.8682V77.4065H110.093C108.484 77.4065 107.68 77.9464 107.68 79.0262C107.68 79.5529 107.884 79.9677 108.293 80.2706C108.702 80.5735 109.269 80.7249 109.994 80.7249Z" fill="black"/>
<path d="M127.873 77.6435H125.836V82.0681H123.937V77.6435H121.899L119.011 82.0681H116.756L120.357 76.6559L117.033 71.5993H119.051L121.88 76.0238H123.937V71.5993H125.836V76.0238H127.893L130.721 71.5993H132.759L129.436 76.6756L133.036 82.0681H130.781L127.873 77.6435Z" fill="black"/>
<path d="M143.882 71.5993L138.799 83.1149C138.351 84.1816 137.823 84.9322 137.216 85.3667C136.623 85.8013 135.904 86.0186 135.06 86.0186C134.546 86.0186 134.045 85.933 133.557 85.7618C133.082 85.6038 132.687 85.3667 132.37 85.0507L133.181 83.6285C133.722 84.1421 134.348 84.3988 135.06 84.3988C135.522 84.3988 135.904 84.2738 136.208 84.0236C136.524 83.7865 136.808 83.3717 137.058 82.7791L137.395 82.0483L132.766 71.5993H134.744L138.403 79.9743L142.023 71.5993H143.882Z" fill="black"/>
<path d="M156.697 71.5005C157.712 71.5005 158.622 71.7244 159.427 72.1721C160.231 72.6198 160.858 73.2453 161.306 74.0486C161.767 74.8518 161.998 75.7802 161.998 76.8337C161.998 77.8871 161.767 78.8221 161.306 79.6385C160.858 80.4418 160.231 81.0673 159.427 81.515C158.622 81.9627 157.712 82.1866 156.697 82.1866C155.945 82.1866 155.253 82.0417 154.62 81.752C154 81.4623 153.473 81.0409 153.038 80.4879V85.9H151.139V71.5993H152.959V73.2585C153.381 72.6791 153.915 72.2445 154.561 71.9548C155.207 71.6519 155.919 71.5005 156.697 71.5005ZM156.539 80.5274C157.211 80.5274 157.811 80.3759 158.339 80.0731C158.879 79.757 159.301 79.3225 159.605 78.7694C159.921 78.2032 160.08 77.5579 160.08 76.8337C160.08 76.1094 159.921 75.4707 159.605 74.9177C159.301 74.3514 158.879 73.9169 158.339 73.614C157.811 73.3111 157.211 73.1597 156.539 73.1597C155.879 73.1597 155.279 73.3177 154.739 73.6338C154.211 73.9366 153.789 74.3646 153.473 74.9177C153.17 75.4707 153.018 76.1094 153.018 76.8337C153.018 77.5579 153.17 78.2032 153.473 78.7694C153.776 79.3225 154.198 79.757 154.739 80.0731C155.279 80.3759 155.879 80.5274 156.539 80.5274Z" fill="black"/>
<path d="M168.399 71.5005C169.85 71.5005 170.957 71.856 171.722 72.5671C172.5 73.2782 172.889 74.3383 172.889 75.7473V82.0681H171.089V80.6854C170.773 81.1726 170.318 81.5479 169.724 81.8113C169.144 82.0615 168.452 82.1866 167.647 82.1866C166.474 82.1866 165.531 81.9035 164.819 81.3372C164.12 80.771 163.77 80.027 163.77 79.1052C163.77 78.1834 164.107 77.446 164.779 76.8929C165.452 76.3267 166.52 76.0436 167.984 76.0436H170.99V75.6683C170.99 74.8518 170.753 74.2263 170.278 73.7918C169.803 73.3572 169.105 73.1399 168.181 73.1399C167.562 73.1399 166.955 73.2453 166.362 73.456C165.768 73.6535 165.267 73.9235 164.858 74.2658L164.067 72.8437C164.608 72.4091 165.254 72.0799 166.006 71.856C166.757 71.619 167.555 71.5005 168.399 71.5005ZM167.964 80.7249C168.689 80.7249 169.316 80.5669 169.843 80.2508C170.37 79.9216 170.753 79.4607 170.99 78.8682V77.4065H168.063C166.454 77.4065 165.65 77.9464 165.65 79.0262C165.65 79.5529 165.854 79.9677 166.263 80.2706C166.672 80.5735 167.239 80.7249 167.964 80.7249Z" fill="black"/>
<path d="M180.383 77.6435H178.207V82.0681H176.309V71.5993H178.207V76.0238H180.423L183.825 71.5993H185.862L181.887 76.6361L186.139 82.0681H183.904L180.383 77.6435Z" fill="black"/>
<path d="M197.257 76.8929C197.257 77.0378 197.244 77.2287 197.218 77.4657H188.712C188.831 78.3875 189.233 79.1315 189.919 79.6978C190.618 80.2508 191.482 80.5274 192.51 80.5274C193.763 80.5274 194.772 80.106 195.537 79.2632L196.585 80.4879C196.11 81.0409 195.517 81.4623 194.805 81.752C194.106 82.0417 193.321 82.1866 192.451 82.1866C191.343 82.1866 190.361 81.9627 189.504 81.515C188.646 81.0541 187.98 80.4154 187.506 79.599C187.044 78.7826 186.813 77.8608 186.813 76.8337C186.813 75.8197 187.038 74.9045 187.486 74.0881C187.948 73.2716 188.574 72.6396 189.365 72.1918C190.17 71.7309 191.073 71.5005 192.075 71.5005C193.077 71.5005 193.967 71.7309 194.745 72.1918C195.537 72.6396 196.15 73.2716 196.585 74.0881C197.033 74.9045 197.257 75.8395 197.257 76.8929ZM192.075 73.1004C191.165 73.1004 190.4 73.377 189.781 73.93C189.174 74.4831 188.818 75.2074 188.712 76.1028H195.438C195.332 75.2205 194.97 74.5029 194.35 73.9498C193.743 73.3836 192.985 73.1004 192.075 73.1004Z" fill="black"/>
<path d="M207.572 73.2585H203.735V82.0681H201.836V73.2585H197.999V71.5993H207.572V73.2585Z" fill="black"/>
<path d="M209.003 79.4805C209.372 79.4805 209.675 79.6122 209.913 79.8755C210.163 80.1257 210.288 80.4418 210.288 80.8237C210.288 81.0212 210.262 81.2121 210.209 81.3965C210.17 81.5808 210.084 81.864 209.952 82.2458L209.022 84.9914H207.776L208.508 82.0483C208.258 81.9561 208.053 81.8047 207.895 81.594C207.75 81.3701 207.677 81.1134 207.677 80.8237C207.677 80.4286 207.803 80.106 208.053 79.8558C208.304 79.6056 208.62 79.4805 209.003 79.4805Z" fill="black"/>
<path d="M222.93 82.1866C221.862 82.1866 220.906 81.9561 220.062 81.4952C219.231 81.0343 218.579 80.4023 218.104 79.599C217.629 78.7826 217.392 77.8608 217.392 76.8337C217.392 75.8065 217.629 74.8913 218.104 74.0881C218.579 73.2716 219.231 72.6396 220.062 72.1918C220.906 71.7309 221.862 71.5005 222.93 71.5005C223.88 71.5005 224.724 71.6914 225.462 72.0733C226.214 72.4552 226.794 73.0083 227.203 73.7325L225.759 74.6609C225.429 74.1605 225.021 73.7852 224.533 73.535C224.045 73.2848 223.504 73.1597 222.911 73.1597C222.225 73.1597 221.605 73.3111 221.051 73.614C220.511 73.9169 220.082 74.3514 219.766 74.9177C219.462 75.4707 219.311 76.1094 219.311 76.8337C219.311 77.5711 219.462 78.2229 219.766 78.7892C220.082 79.3422 220.511 79.7702 221.051 80.0731C221.605 80.3759 222.225 80.5274 222.911 80.5274C223.504 80.5274 224.045 80.4023 224.533 80.1521C225.021 79.9019 225.429 79.5266 225.759 79.0262L227.203 79.9348C226.794 80.6591 226.214 81.2187 225.462 81.6138C224.724 81.9956 223.88 82.1866 222.93 82.1866Z" fill="black"/>
<path d="M233.4 71.5005C234.851 71.5005 235.958 71.856 236.723 72.5671C237.501 73.2782 237.89 74.3383 237.89 75.7473V82.0681H236.09V80.6854C235.774 81.1726 235.319 81.5479 234.725 81.8113C234.145 82.0615 233.453 82.1866 232.648 82.1866C231.475 82.1866 230.532 81.9035 229.82 81.3372C229.121 80.771 228.771 80.027 228.771 79.1052C228.771 78.1834 229.108 77.446 229.78 76.8929C230.453 76.3267 231.521 76.0436 232.985 76.0436H235.991V75.6683C235.991 74.8518 235.754 74.2263 235.279 73.7918C234.804 73.3572 234.105 73.1399 233.182 73.1399C232.563 73.1399 231.956 73.2453 231.363 73.456C230.769 73.6535 230.268 73.9235 229.859 74.2658L229.068 72.8437C229.609 72.4091 230.255 72.0799 231.007 71.856C231.758 71.619 232.556 71.5005 233.4 71.5005ZM232.965 80.7249C233.69 80.7249 234.316 80.5669 234.844 80.2508C235.371 79.9216 235.754 79.4607 235.991 78.8682V77.4065H233.064C231.455 77.4065 230.65 77.9464 230.65 79.0262C230.65 79.5529 230.855 79.9677 231.264 80.2706C231.672 80.5735 232.239 80.7249 232.965 80.7249Z" fill="black"/>
<path d="M241.309 71.5993H243.208V79.2237L249.637 71.5993H251.358V82.0681H249.459V74.4436L243.05 82.0681H241.309V71.5993ZM246.215 70.2363C245.239 70.2363 244.481 70.0059 243.94 69.545C243.4 69.0709 243.123 68.3928 243.109 67.5105H244.395C244.408 67.9977 244.573 68.3928 244.89 68.6956C245.219 68.9853 245.655 69.1302 246.195 69.1302C246.736 69.1302 247.171 68.9853 247.501 68.6956C247.83 68.3928 248.002 67.9977 248.015 67.5105H249.34C249.327 68.3928 249.044 69.0709 248.49 69.545C247.936 70.0059 247.178 70.2363 246.215 70.2363Z" fill="black"/>
<path d="M262.857 73.2585H259.02V82.0681H257.121V73.2585H253.283V71.5993H262.857V73.2585Z" fill="black"/>
<path d="M268.537 71.5005C269.988 71.5005 271.095 71.856 271.86 72.5671C272.638 73.2782 273.027 74.3383 273.027 75.7473V82.0681H271.227V80.6854C270.911 81.1726 270.456 81.5479 269.862 81.8113C269.282 82.0615 268.59 82.1866 267.785 82.1866C266.612 82.1866 265.669 81.9035 264.957 81.3372C264.258 80.771 263.909 80.027 263.909 79.1052C263.909 78.1834 264.245 77.446 264.917 76.8929C265.59 76.3267 266.658 76.0436 268.122 76.0436H271.128V75.6683C271.128 74.8518 270.891 74.2263 270.416 73.7918C269.942 73.3572 269.243 73.1399 268.32 73.1399C267.7 73.1399 267.093 73.2453 266.5 73.456C265.906 73.6535 265.405 73.9235 264.996 74.2658L264.205 72.8437C264.746 72.4091 265.392 72.0799 266.144 71.856C266.895 71.619 267.693 71.5005 268.537 71.5005ZM268.102 80.7249C268.827 80.7249 269.454 80.5669 269.981 80.2508C270.509 79.9216 270.891 79.4607 271.128 78.8682V77.4065H268.201C266.592 77.4065 265.788 77.9464 265.788 79.0262C265.788 79.5529 265.992 79.9677 266.401 80.2706C266.81 80.5735 267.377 80.7249 268.102 80.7249Z" fill="black"/>
<path d="M291.471 71.5993V82.0681H289.572V73.2585H283.658V82.0681H281.759V71.5993H291.471Z" fill="black"/>
<path d="M299.635 82.1866C298.594 82.1866 297.657 81.9561 296.827 81.4952C295.996 81.0343 295.343 80.4023 294.868 79.599C294.407 78.7826 294.176 77.8608 294.176 76.8337C294.176 75.8065 294.407 74.8913 294.868 74.0881C295.343 73.2716 295.996 72.6396 296.827 72.1918C297.657 71.7309 298.594 71.5005 299.635 71.5005C300.677 71.5005 301.607 71.7309 302.424 72.1918C303.255 72.6396 303.901 73.2716 304.363 74.0881C304.838 74.8913 305.075 75.8065 305.075 76.8337C305.075 77.8608 304.838 78.7826 304.363 79.599C303.901 80.4023 303.255 81.0343 302.424 81.4952C301.607 81.9561 300.677 82.1866 299.635 82.1866ZM299.635 80.5274C300.308 80.5274 300.908 80.3759 301.435 80.0731C301.976 79.757 302.398 79.3225 302.701 78.7694C303.005 78.2032 303.156 77.5579 303.156 76.8337C303.156 76.1094 303.005 75.4707 302.701 74.9177C302.398 74.3514 301.976 73.9169 301.435 73.614C300.908 73.3111 300.308 73.1597 299.635 73.1597C298.963 73.1597 298.356 73.3111 297.816 73.614C297.288 73.9169 296.866 74.3514 296.55 74.9177C296.246 75.4707 296.095 76.1094 296.095 76.8337C296.095 77.5579 296.246 78.2032 296.55 78.7694C296.866 79.3225 297.288 79.757 297.816 80.0731C298.356 80.3759 298.963 80.5274 299.635 80.5274Z" fill="black"/>
<path d="M311.892 77.6435H309.716V82.0681H307.817V71.5993H309.716V76.0238H311.931L315.334 71.5993H317.371L313.395 76.6361L317.648 82.0681H315.413L311.892 77.6435Z" fill="black"/>
<path d="M323.184 71.5005C324.635 71.5005 325.743 71.856 326.507 72.5671C327.285 73.2782 327.674 74.3383 327.674 75.7473V82.0681H325.874V80.6854C325.558 81.1726 325.103 81.5479 324.51 81.8113C323.929 82.0615 323.237 82.1866 322.433 82.1866C321.259 82.1866 320.316 81.9035 319.604 81.3372C318.905 80.771 318.556 80.027 318.556 79.1052C318.556 78.1834 318.892 77.446 319.564 76.8929C320.237 76.3267 321.305 76.0436 322.769 76.0436H325.776V75.6683C325.776 74.8518 325.538 74.2263 325.063 73.7918C324.589 73.3572 323.89 73.1399 322.967 73.1399C322.347 73.1399 321.74 73.2453 321.147 73.456C320.554 73.6535 320.052 73.9235 319.644 74.2658L318.852 72.8437C319.393 72.4091 320.039 72.0799 320.791 71.856C321.543 71.619 322.34 71.5005 323.184 71.5005ZM322.749 80.7249C323.474 80.7249 324.101 80.5669 324.628 80.2508C325.156 79.9216 325.538 79.4607 325.776 78.8682V77.4065H322.848C321.239 77.4065 320.435 77.9464 320.435 79.0262C320.435 79.5529 320.639 79.9677 321.048 80.2706C321.457 80.5735 322.024 80.7249 322.749 80.7249Z" fill="black"/>
<path d="M336.406 71.5993H338.305V76.0436H344.278V71.5993H346.177V82.0681H344.278V77.683H338.305V82.0681H336.406V71.5993Z" fill="black"/>
<path d="M359.345 76.8929C359.345 77.0378 359.331 77.2287 359.305 77.4657H350.799C350.918 78.3875 351.32 79.1315 352.006 79.6978C352.705 80.2508 353.569 80.5274 354.597 80.5274C355.85 80.5274 356.859 80.106 357.624 79.2632L358.672 80.4879C358.197 81.0409 357.604 81.4623 356.892 81.752C356.193 82.0417 355.408 82.1866 354.538 82.1866C353.43 82.1866 352.448 81.9627 351.591 81.515C350.733 81.0541 350.068 80.4154 349.593 79.599C349.131 78.7826 348.9 77.8608 348.9 76.8337C348.9 75.8197 349.125 74.9045 349.573 74.0881C350.035 73.2716 350.661 72.6396 351.452 72.1918C352.257 71.7309 353.16 71.5005 354.162 71.5005C355.164 71.5005 356.054 71.7309 356.832 72.1918C357.624 72.6396 358.237 73.2716 358.672 74.0881C359.12 74.9045 359.345 75.8395 359.345 76.8929ZM354.162 73.1004C353.252 73.1004 352.487 73.377 351.868 73.93C351.261 74.4831 350.905 75.2074 350.799 76.1028H357.525C357.419 75.2205 357.057 74.5029 356.437 73.9498C355.83 73.3836 355.072 73.1004 354.162 73.1004Z" fill="black"/>
<path d="M369.659 73.2585H365.822V82.0681H363.923V73.2585H360.086V71.5993H369.659V73.2585Z" fill="black"/>
</svg>
