<svg width="247" height="130" viewBox="0 0 247 130" fill="none" xmlns="http://www.w3.org/2000/svg">
<rect width="246.875" height="97.1638" rx="29" fill="#206EF8"/>
<path d="M196.311 129.882L176.562 95.6767L216.059 95.6767L196.311 129.882Z" fill="#206EF8"/>
<path d="M86.159 56.9571C84.619 56.9571 83.2257 56.6197 81.979 55.9451C80.747 55.2557 79.779 54.3171 79.075 53.1291C78.371 51.9264 78.019 50.5771 78.019 49.0811C78.019 47.5851 78.371 46.2431 79.075 45.0551C79.779 43.8524 80.7544 42.9137 82.001 42.2391C83.2477 41.5497 84.641 41.2051 86.181 41.2051C87.3837 41.2051 88.4837 41.4104 89.481 41.8211C90.4784 42.2171 91.329 42.8111 92.033 43.6031L90.603 44.9891C89.4444 43.7717 87.9997 43.1631 86.269 43.1631C85.125 43.1631 84.091 43.4197 83.167 43.9331C82.243 44.4464 81.517 45.1577 80.989 46.0671C80.4757 46.9617 80.219 47.9664 80.219 49.0811C80.219 50.1957 80.4757 51.2077 80.989 52.1171C81.517 53.0117 82.243 53.7157 83.167 54.2291C84.091 54.7424 85.125 54.9991 86.269 54.9991C87.985 54.9991 89.4297 54.3831 90.603 53.1511L92.033 54.5371C91.329 55.3291 90.471 55.9304 89.459 56.3411C88.4617 56.7517 87.3617 56.9571 86.159 56.9571Z" fill="white"/>
<path d="M106.054 54.9331V59.4871H104.074V56.7811H94.3284V59.4871H92.3264V54.9331H92.9424C93.6904 54.8891 94.2038 54.3611 94.4824 53.3491C94.7611 52.3371 94.9518 50.9071 95.0544 49.0591L95.2304 45.1211H104.272V54.9331H106.054ZM96.9904 49.2131C96.9318 50.6797 96.8071 51.8971 96.6164 52.8651C96.4404 53.8184 96.1104 54.5077 95.6264 54.9331H102.16V46.9691H97.1004L96.9904 49.2131Z" fill="white"/>
<path d="M119.344 51.0171C119.344 51.1784 119.329 51.3911 119.3 51.6551H109.84C109.972 52.6817 110.419 53.5104 111.182 54.1411C111.959 54.7571 112.92 55.0651 114.064 55.0651C115.457 55.0651 116.579 54.5957 117.43 53.6571L118.596 55.0211C118.068 55.6371 117.408 56.1064 116.616 56.4291C115.838 56.7517 114.966 56.9131 113.998 56.9131C112.766 56.9131 111.673 56.6637 110.72 56.1651C109.766 55.6517 109.026 54.9404 108.498 54.0311C107.984 53.1217 107.728 52.0951 107.728 50.9511C107.728 49.8217 107.977 48.8024 108.476 47.8931C108.989 46.9837 109.686 46.2797 110.566 45.7811C111.46 45.2677 112.465 45.0111 113.58 45.0111C114.694 45.0111 115.684 45.2677 116.55 45.7811C117.43 46.2797 118.112 46.9837 118.596 47.8931C119.094 48.8024 119.344 49.8437 119.344 51.0171ZM113.58 46.7931C112.568 46.7931 111.717 47.1011 111.028 47.7171C110.353 48.3331 109.957 49.1397 109.84 50.1371H117.32C117.202 49.1544 116.799 48.3551 116.11 47.7391C115.435 47.1084 114.592 46.7931 113.58 46.7931Z" fill="white"/>
<path d="M132.437 45.1211V56.7811H130.325V46.9691H125.309L125.177 49.5651C125.104 51.1344 124.964 52.4471 124.759 53.5031C124.554 54.5444 124.216 55.3804 123.747 56.0111C123.278 56.6417 122.625 56.9571 121.789 56.9571C121.408 56.9571 120.975 56.8911 120.491 56.7591L120.623 54.9771C120.814 55.0211 120.99 55.0431 121.151 55.0431C121.738 55.0431 122.178 54.7864 122.471 54.2731C122.764 53.7597 122.955 53.1511 123.043 52.4471C123.131 51.7431 123.212 50.7384 123.285 49.4331L123.483 45.1211H132.437Z" fill="white"/>
<path d="M140.679 45.0111C142.292 45.0111 143.524 45.4071 144.375 46.1991C145.24 46.9911 145.673 48.1717 145.673 49.7411V56.7811H143.671V55.2411C143.319 55.7837 142.813 56.2017 142.153 56.4951C141.507 56.7737 140.737 56.9131 139.843 56.9131C138.537 56.9131 137.489 56.5977 136.697 55.9671C135.919 55.3364 135.531 54.5077 135.531 53.4811C135.531 52.4544 135.905 51.6331 136.653 51.0171C137.401 50.3864 138.589 50.0711 140.217 50.0711H143.561V49.6531C143.561 48.7437 143.297 48.0471 142.769 47.5631C142.241 47.0791 141.463 46.8371 140.437 46.8371C139.747 46.8371 139.073 46.9544 138.413 47.1891C137.753 47.4091 137.195 47.7097 136.741 48.0911L135.861 46.5071C136.462 46.0231 137.181 45.6564 138.017 45.4071C138.853 45.1431 139.74 45.0111 140.679 45.0111ZM140.195 55.2851C141.001 55.2851 141.698 55.1091 142.285 54.7571C142.871 54.3904 143.297 53.8771 143.561 53.2171V51.5891H140.305C138.515 51.5891 137.621 52.1904 137.621 53.3931C137.621 53.9797 137.848 54.4417 138.303 54.7791C138.757 55.1164 139.388 55.2851 140.195 55.2851Z" fill="white"/>
<path d="M160.014 51.0171C160.014 51.1784 159.999 51.3911 159.97 51.6551H150.51C150.642 52.6817 151.089 53.5104 151.852 54.1411C152.629 54.7571 153.59 55.0651 154.734 55.0651C156.127 55.0651 157.249 54.5957 158.1 53.6571L159.266 55.0211C158.738 55.6371 158.078 56.1064 157.286 56.4291C156.508 56.7517 155.636 56.9131 154.668 56.9131C153.436 56.9131 152.343 56.6637 151.39 56.1651C150.436 55.6517 149.696 54.9404 149.168 54.0311C148.654 53.1217 148.398 52.0951 148.398 50.9511C148.398 49.8217 148.647 48.8024 149.146 47.8931C149.659 46.9837 150.356 46.2797 151.236 45.7811C152.13 45.2677 153.135 45.0111 154.25 45.0111C155.364 45.0111 156.354 45.2677 157.22 45.7811C158.1 46.2797 158.782 46.9837 159.266 47.8931C159.764 48.8024 160.014 49.8437 160.014 51.0171ZM154.25 46.7931C153.238 46.7931 152.387 47.1011 151.698 47.7171C151.023 48.3331 150.627 49.1397 150.51 50.1371H157.99C157.872 49.1544 157.469 48.3551 156.78 47.7391C156.105 47.1084 155.262 46.7931 154.25 46.7931Z" fill="white"/>
<path d="M176.732 45.1211V56.7811H174.818V48.2671L170.462 55.4611H169.538L165.226 48.2451V56.7811H163.29V45.1211H165.468L170.044 52.9971L174.752 45.1211H176.732Z" fill="white"/>
<path d="M180.513 41.3811H182.999L182.581 51.9191H180.909L180.513 41.3811ZM181.767 56.9131C181.356 56.9131 181.012 56.7811 180.733 56.5171C180.454 56.2384 180.315 55.9011 180.315 55.5051C180.315 55.1091 180.454 54.7791 180.733 54.5151C181.012 54.2364 181.356 54.0971 181.767 54.0971C182.178 54.0971 182.515 54.2364 182.779 54.5151C183.043 54.7791 183.175 55.1091 183.175 55.5051C183.175 55.9011 183.036 56.2384 182.757 56.5171C182.493 56.7811 182.163 56.9131 181.767 56.9131Z" fill="white"/>
</svg>
